<svg xmlns="http://www.w3.org/2000/svg" width="1920" height="1080"><path d="M2100,-180L1980,-180L2100,-60Z" fill="#9fd5ce" stroke="#9fd5ce" stroke-width="1.51"/><path d="M1980,-180L1980,-60L2100,-60Z" fill="#a0d6ce" stroke="#a0d6ce" stroke-width="1.51"/><path d="M2100,-60L1980,-60L2100,60Z" fill="#a7d8d2" stroke="#a7d8d2" stroke-width="1.51"/><path d="M1980,-60L1980,60L2100,60Z" fill="#a8d9d2" stroke="#a8d9d2" stroke-width="1.51"/><path d="M2100,60L1980,60L2100,180Z" fill="#aedcd6" stroke="#aedcd6" stroke-width="1.51"/><path d="M1980,60L1980,180L2100,180Z" fill="#afdcd6" stroke="#afdcd6" stroke-width="1.51"/><path d="M2100,180L1980,180L2100,300Z" fill="#b6dfda" stroke="#b6dfda" stroke-width="1.51"/><path d="M1980,180L1980,300L2100,300Z" fill="#b7e0da" stroke="#b7e0da" stroke-width="1.51"/><path d="M2100,300L1980,300L2100,420Z" fill="#bde2dd" stroke="#bde2dd" stroke-width="1.51"/><path d="M1980,300L1980,420L2100,420Z" fill="#bfe3de" stroke="#bfe3de" stroke-width="1.51"/><path d="M2100,420L1980,420L2100,540Z" fill="#c5e6e1" stroke="#c5e6e1" stroke-width="1.51"/><path d="M1980,420L1980,540L2100,540Z" fill="#c6e6e1" stroke="#c6e6e1" stroke-width="1.51"/><path d="M2100,540L1980,540L2100,660Z" fill="#cde9e5" stroke="#cde9e5" stroke-width="1.51"/><path d="M1980,540L1980,660L2100,660Z" fill="#ceeae5" stroke="#ceeae5" stroke-width="1.51"/><path d="M2100,660L1980,660L2100,780Z" fill="#d4ece9" stroke="#d4ece9" stroke-width="1.51"/><path d="M1980,660L1980,780L2100,780Z" fill="#d5ede9" stroke="#d5ede9" stroke-width="1.51"/><path d="M1980,1020L2100,1020L2100,900Z" fill="#e6f4f2" stroke="#e6f4f2" stroke-width="1.51"/><path d="M1980,900L1980,1020L2100,900Z" fill="#e2f2ef" stroke="#e2f2ef" stroke-width="1.51"/><path d="M2100,780L1980,780L2100,900Z" fill="#dcf0ed" stroke="#dcf0ed" stroke-width="1.51"/><path d="M1980,780L1980,900L2100,900Z" fill="#ddf0ed" stroke="#ddf0ed" stroke-width="1.51"/><path d="M2100,1020L1980,1020L2100,1140Z" fill="#ebf6f4" stroke="#ebf6f4" stroke-width="1.51"/><path d="M1980,1020L1980,1140L2100,1140Z" fill="#ecf7f5" stroke="#ecf7f5" stroke-width="1.51"/><path d="M2100,1140L1980,1140L2100,1260Z" fill="#f3f9f8" stroke="#f3f9f8" stroke-width="1.51"/><path d="M1980,1140L1980,1260L2100,1260Z" fill="#f4faf8" stroke="#f4faf8" stroke-width="1.51"/><path d="M1980,-180L1860,-180L1980,-60Z" fill="#9ad3cc" stroke="#9ad3cc" stroke-width="1.51"/><path d="M1860,-180L1860,-60L1980,-60Z" fill="#9ad4cc" stroke="#9ad4cc" stroke-width="1.51"/><path d="M1980,-60L1860,-60L1980,60Z" fill="#a1d6cf" stroke="#a1d6cf" stroke-width="1.51"/><path d="M1860,-60L1860,60L1980,60Z" fill="#a2d7d0" stroke="#a2d7d0" stroke-width="1.51"/><path d="M1980,60L1860,60L1980,180Z" fill="#a9dad3" stroke="#a9dad3" stroke-width="1.51"/><path d="M1860,60L1860,180L1980,180Z" fill="#aadad4" stroke="#aadad4" stroke-width="1.51"/><path d="M1860,1020L1980,1020L1980,900Z" fill="#e1f2ef" stroke="#e1f2ef" stroke-width="1.51"/><path d="M1860,900L1860,1020L1980,900Z" fill="#ddf0ed" stroke="#ddf0ed" stroke-width="1.51"/><path d="M1980,420L1860,420L1980,540Z" fill="#c0e4df" stroke="#c0e4df" stroke-width="1.51"/><path d="M1860,420L1860,540L1980,540Z" fill="#c1e4df" stroke="#c1e4df" stroke-width="1.51"/><path d="M1980,540L1860,540L1980,660Z" fill="#c8e7e2" stroke="#c8e7e2" stroke-width="1.51"/><path d="M1860,540L1860,660L1980,660Z" fill="#c9e8e3" stroke="#c9e8e3" stroke-width="1.51"/><path d="M1860,900L1980,900L1980,780Z" fill="#daefeb" stroke="#daefeb" stroke-width="1.51"/><path d="M1860,780L1860,900L1980,780Z" fill="#d6ede9" stroke="#d6ede9" stroke-width="1.51"/><path d="M1980,660L1860,660L1980,780Z" fill="#cfeae6" stroke="#cfeae6" stroke-width="1.51"/><path d="M1860,660L1860,780L1980,780Z" fill="#d0ebe6" stroke="#d0ebe6" stroke-width="1.51"/><path d="M1980,1020L1860,1020L1980,1140Z" fill="#e6f4f2" stroke="#e6f4f2" stroke-width="1.51"/><path d="M1860,1020L1860,1140L1980,1140Z" fill="#e7f4f2" stroke="#e7f4f2" stroke-width="1.51"/><path d="M1860,1260L1980,1260L1980,1140Z" fill="#f0f8f7" stroke="#f0f8f7" stroke-width="1.51"/><path d="M1860,1140L1860,1260L1980,1140Z" fill="#ecf7f5" stroke="#ecf7f5" stroke-width="1.51"/><path d="M1980,180L1860,180L1980,300Z" fill="#b1ddd7" stroke="#b1ddd7" stroke-width="1.51"/><path d="M1860,180L1860,300L1980,300Z" fill="#b2ded7" stroke="#b2ded7" stroke-width="1.51"/><path d="M1860,420L1980,420L1980,300Z" fill="#bbe2dc" stroke="#bbe2dc" stroke-width="1.51"/><path d="M1860,300L1860,420L1980,300Z" fill="#b7e0da" stroke="#b7e0da" stroke-width="1.51"/><path d="M1860,-180L1740,-180L1860,-60Z" fill="#95d1c9" stroke="#95d1c9" stroke-width="1.51"/><path d="M1740,-180L1740,-60L1860,-60Z" fill="#95d2c9" stroke="#95d2c9" stroke-width="1.51"/><path d="M1860,-60L1740,-60L1860,60Z" fill="#9dd4cd" stroke="#9dd4cd" stroke-width="1.51"/><path d="M1740,-60L1740,60L1860,60Z" fill="#9dd5cd" stroke="#9dd5cd" stroke-width="1.51"/><path d="M1860,60L1740,60L1860,180Z" fill="#a5d8d1" stroke="#a5d8d1" stroke-width="1.51"/><path d="M1740,60L1740,180L1860,180Z" fill="#a5d8d1" stroke="#a5d8d1" stroke-width="1.51"/><path d="M1740,420L1860,420L1860,300Z" fill="#b7e0da" stroke="#b7e0da" stroke-width="1.51"/><path d="M1740,300L1740,420L1860,300Z" fill="#b2ded7" stroke="#b2ded7" stroke-width="1.51"/><path d="M1860,180L1740,180L1860,300Z" fill="#acdbd5" stroke="#acdbd5" stroke-width="1.51"/><path d="M1740,180L1740,300L1860,300Z" fill="#addcd5" stroke="#addcd5" stroke-width="1.51"/><path d="M1860,420L1740,420L1860,540Z" fill="#bce2dc" stroke="#bce2dc" stroke-width="1.51"/><path d="M1740,420L1740,540L1860,540Z" fill="#bce2dc" stroke="#bce2dc" stroke-width="1.51"/><path d="M1860,540L1740,540L1860,660Z" fill="#c3e5e0" stroke="#c3e5e0" stroke-width="1.51"/><path d="M1740,540L1740,660L1860,660Z" fill="#c4e6e0" stroke="#c4e6e0" stroke-width="1.51"/><path d="M1860,660L1740,660L1860,780Z" fill="#cbe8e4" stroke="#cbe8e4" stroke-width="1.51"/><path d="M1740,660L1740,780L1860,780Z" fill="#cbe9e4" stroke="#cbe9e4" stroke-width="1.51"/><path d="M1860,780L1740,780L1860,900Z" fill="#d3ece8" stroke="#d3ece8" stroke-width="1.51"/><path d="M1740,780L1740,900L1860,900Z" fill="#d3ece8" stroke="#d3ece8" stroke-width="1.51"/><path d="M1860,900L1740,900L1860,1020Z" fill="#daefeb" stroke="#daefeb" stroke-width="1.51"/><path d="M1740,900L1740,1020L1860,1020Z" fill="#dbefec" stroke="#dbefec" stroke-width="1.51"/><path d="M1740,1260L1860,1260L1860,1140Z" fill="#ecf6f4" stroke="#ecf6f4" stroke-width="1.51"/><path d="M1740,1140L1740,1260L1860,1140Z" fill="#e7f5f2" stroke="#e7f5f2" stroke-width="1.51"/><path d="M1860,1020L1740,1020L1860,1140Z" fill="#e2f2ef" stroke="#e2f2ef" stroke-width="1.51"/><path d="M1740,1020L1740,1140L1860,1140Z" fill="#e2f3f0" stroke="#e2f3f0" stroke-width="1.51"/><path d="M1740,-180L1620,-180L1740,-60Z" fill="#8fcfc7" stroke="#8fcfc7" stroke-width="1.51"/><path d="M1620,-180L1620,-60L1740,-60Z" fill="#90cfc7" stroke="#90cfc7" stroke-width="1.51"/><path d="M1740,-60L1620,-60L1740,60Z" fill="#97d2ca" stroke="#97d2ca" stroke-width="1.51"/><path d="M1620,-60L1620,60L1740,60Z" fill="#98d3cb" stroke="#98d3cb" stroke-width="1.51"/><path d="M1740,60L1620,60L1740,180Z" fill="#9fd6cf" stroke="#9fd6cf" stroke-width="1.51"/><path d="M1620,60L1620,180L1740,180Z" fill="#a0d6cf" stroke="#a0d6cf" stroke-width="1.51"/><path d="M1620,420L1740,420L1740,300Z" fill="#b1ded7" stroke="#b1ded7" stroke-width="1.51"/><path d="M1620,300L1620,420L1740,300Z" fill="#addbd5" stroke="#addbd5" stroke-width="1.51"/><path d="M1740,180L1620,180L1740,300Z" fill="#a7d9d2" stroke="#a7d9d2" stroke-width="1.51"/><path d="M1620,180L1620,300L1740,300Z" fill="#a8d9d2" stroke="#a8d9d2" stroke-width="1.51"/><path d="M1740,420L1620,420L1740,540Z" fill="#b7e0da" stroke="#b7e0da" stroke-width="1.51"/><path d="M1620,420L1620,540L1740,540Z" fill="#b7e0da" stroke="#b7e0da" stroke-width="1.51"/><path d="M1740,540L1620,540L1740,660Z" fill="#bee3dd" stroke="#bee3dd" stroke-width="1.51"/><path d="M1620,540L1620,660L1740,660Z" fill="#bfe3de" stroke="#bfe3de" stroke-width="1.51"/><path d="M1740,660L1620,660L1740,780Z" fill="#c6e6e1" stroke="#c6e6e1" stroke-width="1.51"/><path d="M1620,660L1620,780L1740,780Z" fill="#c7e6e1" stroke="#c7e6e1" stroke-width="1.51"/><path d="M1740,780L1620,780L1740,900Z" fill="#ceeae5" stroke="#ceeae5" stroke-width="1.51"/><path d="M1620,780L1620,900L1740,900Z" fill="#cfeae5" stroke="#cfeae5" stroke-width="1.51"/><path d="M1620,1140L1740,1140L1740,1020Z" fill="#dff1ee" stroke="#dff1ee" stroke-width="1.51"/><path d="M1620,1020L1620,1140L1740,1020Z" fill="#dbefec" stroke="#dbefec" stroke-width="1.51"/><path d="M1740,900L1620,900L1740,1020Z" fill="#d5ece9" stroke="#d5ece9" stroke-width="1.51"/><path d="M1620,900L1620,1020L1740,1020Z" fill="#d6ece9" stroke="#d6ece9" stroke-width="1.51"/><path d="M1740,1140L1620,1140L1740,1260Z" fill="#e4f3f1" stroke="#e4f3f1" stroke-width="1.51"/><path d="M1620,1140L1620,1260L1740,1260Z" fill="#e5f4f1" stroke="#e5f4f1" stroke-width="1.51"/><path d="M1620,-180L1500,-180L1620,-60Z" fill="#8acdc4" stroke="#8acdc4" stroke-width="1.51"/><path d="M1500,-180L1500,-60L1620,-60Z" fill="#8bcdc4" stroke="#8bcdc4" stroke-width="1.51"/><path d="M1620,-60L1500,-60L1620,60Z" fill="#92d0c8" stroke="#92d0c8" stroke-width="1.51"/><path d="M1500,-60L1500,60L1620,60Z" fill="#93d1c9" stroke="#93d1c9" stroke-width="1.51"/><path d="M1620,60L1500,60L1620,180Z" fill="#9ad3cc" stroke="#9ad3cc" stroke-width="1.51"/><path d="M1500,60L1500,180L1620,180Z" fill="#9bd4cc" stroke="#9bd4cc" stroke-width="1.51"/><path d="M1620,180L1500,180L1620,300Z" fill="#a2d7cf" stroke="#a2d7cf" stroke-width="1.51"/><path d="M1500,180L1500,300L1620,300Z" fill="#a3d7d0" stroke="#a3d7d0" stroke-width="1.51"/><path d="M1620,300L1500,300L1620,420Z" fill="#a9dad3" stroke="#a9dad3" stroke-width="1.51"/><path d="M1500,300L1500,420L1620,420Z" fill="#abdbd4" stroke="#abdbd4" stroke-width="1.51"/><path d="M1620,420L1500,420L1620,540Z" fill="#b2ddd7" stroke="#b2ddd7" stroke-width="1.51"/><path d="M1500,420L1500,540L1620,540Z" fill="#b2ded7" stroke="#b2ded7" stroke-width="1.51"/><path d="M1620,540L1500,540L1620,660Z" fill="#b9e1da" stroke="#b9e1da" stroke-width="1.51"/><path d="M1500,540L1500,660L1620,660Z" fill="#bae1db" stroke="#bae1db" stroke-width="1.51"/><path d="M1620,660L1500,660L1620,780Z" fill="#c1e4de" stroke="#c1e4de" stroke-width="1.51"/><path d="M1500,660L1500,780L1620,780Z" fill="#c2e4df" stroke="#c2e4df" stroke-width="1.51"/><path d="M1620,780L1500,780L1620,900Z" fill="#c9e7e2" stroke="#c9e7e2" stroke-width="1.51"/><path d="M1500,780L1500,900L1620,900Z" fill="#cae8e3" stroke="#cae8e3" stroke-width="1.51"/><path d="M1620,900L1500,900L1620,1020Z" fill="#d0eae6" stroke="#d0eae6" stroke-width="1.51"/><path d="M1500,900L1500,1020L1620,1020Z" fill="#d1ebe7" stroke="#d1ebe7" stroke-width="1.51"/><path d="M1620,1020L1500,1020L1620,1140Z" fill="#d8eeea" stroke="#d8eeea" stroke-width="1.51"/><path d="M1500,1020L1500,1140L1620,1140Z" fill="#d9eeeb" stroke="#d9eeeb" stroke-width="1.51"/><path d="M1620,1140L1500,1140L1620,1260Z" fill="#dff1ee" stroke="#dff1ee" stroke-width="1.51"/><path d="M1500,1140L1500,1260L1620,1260Z" fill="#e0f2ee" stroke="#e0f2ee" stroke-width="1.51"/><path d="M1500,-180L1380,-180L1500,-60Z" fill="#85cbc2" stroke="#85cbc2" stroke-width="1.51"/><path d="M1380,-180L1380,-60L1500,-60Z" fill="#85cbc2" stroke="#85cbc2" stroke-width="1.51"/><path d="M1500,-60L1380,-60L1500,60Z" fill="#8dcec5" stroke="#8dcec5" stroke-width="1.51"/><path d="M1380,-60L1380,60L1500,60Z" fill="#8ecfc6" stroke="#8ecfc6" stroke-width="1.51"/><path d="M1500,60L1380,60L1500,180Z" fill="#95d1c9" stroke="#95d1c9" stroke-width="1.51"/><path d="M1380,60L1380,180L1500,180Z" fill="#96d2ca" stroke="#96d2ca" stroke-width="1.51"/><path d="M1500,180L1380,180L1500,300Z" fill="#9dd5cd" stroke="#9dd5cd" stroke-width="1.51"/><path d="M1380,180L1380,300L1500,300Z" fill="#9ed5cd" stroke="#9ed5cd" stroke-width="1.51"/><path d="M1500,300L1380,300L1500,420Z" fill="#a4d8d0" stroke="#a4d8d0" stroke-width="1.51"/><path d="M1380,300L1380,420L1500,420Z" fill="#a6d9d1" stroke="#a6d9d1" stroke-width="1.51"/><path d="M1500,420L1380,420L1500,540Z" fill="#acdbd4" stroke="#acdbd4" stroke-width="1.51"/><path d="M1380,420L1380,540L1500,540Z" fill="#addcd5" stroke="#addcd5" stroke-width="1.51"/><path d="M1500,540L1380,540L1500,660Z" fill="#b4dfd8" stroke="#b4dfd8" stroke-width="1.51"/><path d="M1380,540L1380,660L1500,660Z" fill="#b5dfd9" stroke="#b5dfd9" stroke-width="1.51"/><path d="M1500,660L1380,660L1500,780Z" fill="#bce2dc" stroke="#bce2dc" stroke-width="1.51"/><path d="M1380,660L1380,780L1500,780Z" fill="#bde2dc" stroke="#bde2dc" stroke-width="1.51"/><path d="M1380,1020L1500,1020L1500,900Z" fill="#cee9e5" stroke="#cee9e5" stroke-width="1.51"/><path d="M1380,900L1380,1020L1500,900Z" fill="#cae8e3" stroke="#cae8e3" stroke-width="1.51"/><path d="M1500,780L1380,780L1500,900Z" fill="#c4e5e0" stroke="#c4e5e0" stroke-width="1.51"/><path d="M1380,780L1380,900L1500,900Z" fill="#c5e6e0" stroke="#c5e6e0" stroke-width="1.51"/><path d="M1500,1020L1380,1020L1500,1140Z" fill="#d3ece7" stroke="#d3ece7" stroke-width="1.51"/><path d="M1380,1020L1380,1140L1500,1140Z" fill="#d4ece8" stroke="#d4ece8" stroke-width="1.51"/><path d="M1500,1140L1380,1140L1500,1260Z" fill="#daefeb" stroke="#daefeb" stroke-width="1.51"/><path d="M1380,1140L1380,1260L1500,1260Z" fill="#dbf0ec" stroke="#dbf0ec" stroke-width="1.51"/><path d="M1380,-180L1260,-180L1380,-60Z" fill="#7fc9bf" stroke="#7fc9bf" stroke-width="1.51"/><path d="M1260,-180L1260,-60L1380,-60Z" fill="#80c9c0" stroke="#80c9c0" stroke-width="1.51"/><path d="M1380,-60L1260,-60L1380,60Z" fill="#87ccc3" stroke="#87ccc3" stroke-width="1.51"/><path d="M1260,-60L1260,60L1380,60Z" fill="#88cdc4" stroke="#88cdc4" stroke-width="1.51"/><path d="M1380,60L1260,60L1380,180Z" fill="#90cfc7" stroke="#90cfc7" stroke-width="1.51"/><path d="M1260,60L1260,180L1380,180Z" fill="#90d0c7" stroke="#90d0c7" stroke-width="1.51"/><path d="M1380,180L1260,180L1380,300Z" fill="#97d3ca" stroke="#97d3ca" stroke-width="1.51"/><path d="M1260,180L1260,300L1380,300Z" fill="#98d3cb" stroke="#98d3cb" stroke-width="1.51"/><path d="M1260,1140L1380,1140L1380,1020Z" fill="#d0ebe6" stroke="#d0ebe6" stroke-width="1.51"/><path d="M1260,1020L1260,1140L1380,1020Z" fill="#cce9e4" stroke="#cce9e4" stroke-width="1.51"/><path d="M1380,540L1260,540L1380,660Z" fill="#afddd5" stroke="#afddd5" stroke-width="1.51"/><path d="M1260,540L1260,660L1380,660Z" fill="#b0ddd6" stroke="#b0ddd6" stroke-width="1.51"/><path d="M1380,660L1260,660L1380,780Z" fill="#b7e0d9" stroke="#b7e0d9" stroke-width="1.51"/><path d="M1260,660L1260,780L1380,780Z" fill="#b7e0da" stroke="#b7e0da" stroke-width="1.51"/><path d="M1260,1020L1380,1020L1380,900Z" fill="#c9e7e2" stroke="#c9e7e2" stroke-width="1.51"/><path d="M1260,900L1260,1020L1380,900Z" fill="#c5e6e0" stroke="#c5e6e0" stroke-width="1.51"/><path d="M1380,780L1260,780L1380,900Z" fill="#bfe3dd" stroke="#bfe3dd" stroke-width="1.51"/><path d="M1260,780L1260,900L1380,900Z" fill="#c0e4de" stroke="#c0e4de" stroke-width="1.51"/><path d="M1380,1140L1260,1140L1380,1260Z" fill="#d5ede9" stroke="#d5ede9" stroke-width="1.51"/><path d="M1260,1140L1260,1260L1380,1260Z" fill="#d6eee9" stroke="#d6eee9" stroke-width="1.51"/><path d="M1380,300L1260,300L1380,420Z" fill="#9fd6ce" stroke="#9fd6ce" stroke-width="1.51"/><path d="M1260,300L1260,420L1380,420Z" fill="#a0d7cf" stroke="#a0d7cf" stroke-width="1.51"/><path d="M1260,540L1380,540L1380,420Z" fill="#aadad3" stroke="#aadad3" stroke-width="1.51"/><path d="M1260,420L1260,540L1380,420Z" fill="#a6d9d1" stroke="#a6d9d1" stroke-width="1.51"/><path d="M1260,-180L1140,-180L1260,-60Z" fill="#7ac7bd" stroke="#7ac7bd" stroke-width="1.51"/><path d="M1140,-180L1140,-60L1260,-60Z" fill="#7bc7bd" stroke="#7bc7bd" stroke-width="1.51"/><path d="M1260,-60L1140,-60L1260,60Z" fill="#82cac1" stroke="#82cac1" stroke-width="1.51"/><path d="M1140,-60L1140,60L1260,60Z" fill="#83cac1" stroke="#83cac1" stroke-width="1.51"/><path d="M1260,60L1140,60L1260,180Z" fill="#8acdc5" stroke="#8acdc5" stroke-width="1.51"/><path d="M1140,60L1140,180L1260,180Z" fill="#8bcdc5" stroke="#8bcdc5" stroke-width="1.51"/><path d="M1260,180L1140,180L1260,300Z" fill="#92d1c8" stroke="#92d1c8" stroke-width="1.51"/><path d="M1140,180L1140,300L1260,300Z" fill="#93d1c8" stroke="#93d1c8" stroke-width="1.51"/><path d="M1260,300L1140,300L1260,420Z" fill="#9ad4cc" stroke="#9ad4cc" stroke-width="1.51"/><path d="M1140,300L1140,420L1260,420Z" fill="#9bd4cc" stroke="#9bd4cc" stroke-width="1.51"/><path d="M1260,420L1140,420L1260,540Z" fill="#a2d7d0" stroke="#a2d7d0" stroke-width="1.51"/><path d="M1140,420L1140,540L1260,540Z" fill="#a3d7d0" stroke="#a3d7d0" stroke-width="1.51"/><path d="M1260,540L1140,540L1260,660Z" fill="#aadbd3" stroke="#aadbd3" stroke-width="1.51"/><path d="M1140,540L1140,660L1260,660Z" fill="#abdbd4" stroke="#abdbd4" stroke-width="1.51"/><path d="M1260,660L1140,660L1260,780Z" fill="#b1ddd7" stroke="#b1ddd7" stroke-width="1.51"/><path d="M1140,660L1140,780L1260,780Z" fill="#b3ded7" stroke="#b3ded7" stroke-width="1.51"/><path d="M1260,780L1140,780L1260,900Z" fill="#bae1db" stroke="#bae1db" stroke-width="1.51"/><path d="M1140,780L1140,900L1260,900Z" fill="#bbe1db" stroke="#bbe1db" stroke-width="1.51"/><path d="M1260,900L1140,900L1260,1020Z" fill="#c1e4df" stroke="#c1e4df" stroke-width="1.51"/><path d="M1140,900L1140,1020L1260,1020Z" fill="#c2e4df" stroke="#c2e4df" stroke-width="1.51"/><path d="M1260,1020L1140,1020L1260,1140Z" fill="#c9e8e3" stroke="#c9e8e3" stroke-width="1.51"/><path d="M1140,1020L1140,1140L1260,1140Z" fill="#cae8e3" stroke="#cae8e3" stroke-width="1.51"/><path d="M1260,1140L1140,1140L1260,1260Z" fill="#d0ebe7" stroke="#d0ebe7" stroke-width="1.51"/><path d="M1140,1140L1140,1260L1260,1260Z" fill="#d1ebe7" stroke="#d1ebe7" stroke-width="1.51"/><path d="M1140,-180L1020,-180L1140,-60Z" fill="#74c4bb" stroke="#74c4bb" stroke-width="1.51"/><path d="M1020,-180L1020,-60L1140,-60Z" fill="#75c5bb" stroke="#75c5bb" stroke-width="1.51"/><path d="M1140,-60L1020,-60L1140,60Z" fill="#7cc7be" stroke="#7cc7be" stroke-width="1.51"/><path d="M1020,-60L1020,60L1140,60Z" fill="#7ec8bf" stroke="#7ec8bf" stroke-width="1.51"/><path d="M1140,60L1020,60L1140,180Z" fill="#85cbc2" stroke="#85cbc2" stroke-width="1.51"/><path d="M1020,60L1020,180L1140,180Z" fill="#86cbc2" stroke="#86cbc2" stroke-width="1.51"/><path d="M1140,180L1020,180L1140,300Z" fill="#8dcec6" stroke="#8dcec6" stroke-width="1.51"/><path d="M1020,180L1020,300L1140,300Z" fill="#8ecfc6" stroke="#8ecfc6" stroke-width="1.51"/><path d="M1140,300L1020,300L1140,420Z" fill="#95d1c9" stroke="#95d1c9" stroke-width="1.51"/><path d="M1020,300L1020,420L1140,420Z" fill="#96d2ca" stroke="#96d2ca" stroke-width="1.51"/><path d="M1140,660L1020,660L1140,780Z" fill="#addbd5" stroke="#addbd5" stroke-width="1.51"/><path d="M1020,660L1020,780L1140,780Z" fill="#aedcd5" stroke="#aedcd5" stroke-width="1.51"/><path d="M1140,780L1020,780L1140,900Z" fill="#b5dfd9" stroke="#b5dfd9" stroke-width="1.51"/><path d="M1020,780L1020,900L1140,900Z" fill="#b6dfd9" stroke="#b6dfd9" stroke-width="1.51"/><path d="M1020,1140L1140,1140L1140,1020Z" fill="#c6e6e2" stroke="#c6e6e2" stroke-width="1.51"/><path d="M1020,1020L1020,1140L1140,1020Z" fill="#c2e5df" stroke="#c2e5df" stroke-width="1.51"/><path d="M1140,900L1020,900L1140,1020Z" fill="#bce2dc" stroke="#bce2dc" stroke-width="1.51"/><path d="M1020,900L1020,1020L1140,1020Z" fill="#bde2dd" stroke="#bde2dd" stroke-width="1.51"/><path d="M1140,1140L1020,1140L1140,1260Z" fill="#cbe8e4" stroke="#cbe8e4" stroke-width="1.51"/><path d="M1020,1140L1020,1260L1140,1260Z" fill="#cce9e4" stroke="#cce9e4" stroke-width="1.51"/><path d="M1140,420L1020,420L1140,540Z" fill="#9dd5cd" stroke="#9dd5cd" stroke-width="1.51"/><path d="M1020,420L1020,540L1140,540Z" fill="#9ed5cd" stroke="#9ed5cd" stroke-width="1.51"/><path d="M1020,660L1140,660L1140,540Z" fill="#a8d9d2" stroke="#a8d9d2" stroke-width="1.51"/><path d="M1020,540L1020,660L1140,540Z" fill="#a4d8d0" stroke="#a4d8d0" stroke-width="1.51"/><path d="M1020,-60L900,-60L1020,60Z" fill="#77c5bc" stroke="#77c5bc" stroke-width="1.51"/><path d="M900,-60L900,60L1020,60Z" fill="#78c6bc" stroke="#78c6bc" stroke-width="1.51"/><path d="M1020,60L900,60L1020,180Z" fill="#80c9c0" stroke="#80c9c0" stroke-width="1.51"/><path d="M900,60L900,180L1020,180Z" fill="#81c9c0" stroke="#81c9c0" stroke-width="1.51"/><path d="M1020,180L900,180L1020,300Z" fill="#88ccc3" stroke="#88ccc3" stroke-width="1.51"/><path d="M900,180L900,300L1020,300Z" fill="#89cdc3" stroke="#89cdc3" stroke-width="1.51"/><path d="M1020,300L900,300L1020,420Z" fill="#90cfc7" stroke="#90cfc7" stroke-width="1.51"/><path d="M900,300L900,420L1020,420Z" fill="#91d0c7" stroke="#91d0c7" stroke-width="1.51"/><path d="M1020,420L900,420L1020,540Z" fill="#98d3cb" stroke="#98d3cb" stroke-width="1.51"/><path d="M900,420L900,540L1020,540Z" fill="#99d3cb" stroke="#99d3cb" stroke-width="1.51"/><path d="M1020,540L900,540L1020,660Z" fill="#a0d6cf" stroke="#a0d6cf" stroke-width="1.51"/><path d="M900,540L900,660L1020,660Z" fill="#a1d7cf" stroke="#a1d7cf" stroke-width="1.51"/><path d="M1020,660L900,660L1020,780Z" fill="#a8d9d2" stroke="#a8d9d2" stroke-width="1.51"/><path d="M900,660L900,780L1020,780Z" fill="#a9dad2" stroke="#a9dad2" stroke-width="1.51"/><path d="M1020,780L900,780L1020,900Z" fill="#b0ddd6" stroke="#b0ddd6" stroke-width="1.51"/><path d="M900,780L900,900L1020,900Z" fill="#b1ddd6" stroke="#b1ddd6" stroke-width="1.51"/><path d="M1020,900L900,900L1020,1020Z" fill="#b7e0da" stroke="#b7e0da" stroke-width="1.51"/><path d="M900,900L900,1020L1020,1020Z" fill="#b8e0da" stroke="#b8e0da" stroke-width="1.51"/><path d="M1020,1020L900,1020L1020,1140Z" fill="#bfe3de" stroke="#bfe3de" stroke-width="1.51"/><path d="M900,1020L900,1140L1020,1140Z" fill="#c0e4de" stroke="#c0e4de" stroke-width="1.51"/><path d="M1020,1140L900,1140L1020,1260Z" fill="#c7e6e2" stroke="#c7e6e2" stroke-width="1.51"/><path d="M900,1140L900,1260L1020,1260Z" fill="#c8e7e2" stroke="#c8e7e2" stroke-width="1.51"/><path d="M900,-60L1020,-60L1020,-180Z" fill="#71c3b9" stroke="#71c3b9" stroke-width="1.51"/><path d="M900,-180L900,-60L1020,-180Z" fill="#6dc2b7" stroke="#6dc2b7" stroke-width="1.51"/><path d="M900,900L780,900L900,1020Z" fill="#b2ded7" stroke="#b2ded7" stroke-width="1.51"/><path d="M780,900L780,1020L900,1020Z" fill="#b3ded8" stroke="#b3ded8" stroke-width="1.51"/><path d="M900,-180L780,-180L900,-60Z" fill="#69c0b6" stroke="#69c0b6" stroke-width="1.51"/><path d="M780,-180L780,-60L900,-60Z" fill="#69c0b6" stroke="#69c0b6" stroke-width="1.51"/><path d="M900,-60L780,-60L900,60Z" fill="#71c3b9" stroke="#71c3b9" stroke-width="1.51"/><path d="M780,-60L780,60L900,60Z" fill="#72c4ba" stroke="#72c4ba" stroke-width="1.51"/><path d="M900,60L780,60L900,180Z" fill="#7ac7bd" stroke="#7ac7bd" stroke-width="1.51"/><path d="M780,60L780,180L900,180Z" fill="#7bc7bd" stroke="#7bc7bd" stroke-width="1.51"/><path d="M900,180L780,180L900,300Z" fill="#82cac1" stroke="#82cac1" stroke-width="1.51"/><path d="M780,180L780,300L900,300Z" fill="#83cac1" stroke="#83cac1" stroke-width="1.51"/><path d="M900,300L780,300L900,420Z" fill="#8bcdc4" stroke="#8bcdc4" stroke-width="1.51"/><path d="M780,300L780,420L900,420Z" fill="#8ccec5" stroke="#8ccec5" stroke-width="1.51"/><path d="M900,420L780,420L900,540Z" fill="#93d0c8" stroke="#93d0c8" stroke-width="1.51"/><path d="M780,420L780,540L900,540Z" fill="#94d1c8" stroke="#94d1c8" stroke-width="1.51"/><path d="M900,540L780,540L900,660Z" fill="#9bd4cc" stroke="#9bd4cc" stroke-width="1.51"/><path d="M780,540L780,660L900,660Z" fill="#9cd4cc" stroke="#9cd4cc" stroke-width="1.51"/><path d="M780,900L900,900L900,780Z" fill="#addcd5" stroke="#addcd5" stroke-width="1.51"/><path d="M780,780L780,900L900,780Z" fill="#a9dad3" stroke="#a9dad3" stroke-width="1.51"/><path d="M900,660L780,660L900,780Z" fill="#a3d7d0" stroke="#a3d7d0" stroke-width="1.51"/><path d="M780,660L780,780L900,780Z" fill="#a3d7d0" stroke="#a3d7d0" stroke-width="1.51"/><path d="M900,1020L780,1020L900,1140Z" fill="#bae1db" stroke="#bae1db" stroke-width="1.51"/><path d="M780,1020L780,1140L900,1140Z" fill="#bbe1dc" stroke="#bbe1dc" stroke-width="1.51"/><path d="M900,1140L780,1140L900,1260Z" fill="#c2e4df" stroke="#c2e4df" stroke-width="1.51"/><path d="M780,1140L780,1260L900,1260Z" fill="#c2e5df" stroke="#c2e5df" stroke-width="1.51"/><path d="M780,-180L660,-180L780,-60Z" fill="#62beb3" stroke="#62beb3" stroke-width="1.51"/><path d="M660,-180L660,-60L780,-60Z" fill="#64beb3" stroke="#64beb3" stroke-width="1.51"/><path d="M780,-60L660,-60L780,60Z" fill="#6bc1b7" stroke="#6bc1b7" stroke-width="1.51"/><path d="M660,-60L660,60L780,60Z" fill="#6dc2b7" stroke="#6dc2b7" stroke-width="1.51"/><path d="M780,60L660,60L780,180Z" fill="#74c4bb" stroke="#74c4bb" stroke-width="1.51"/><path d="M660,60L660,180L780,180Z" fill="#76c5bb" stroke="#76c5bb" stroke-width="1.51"/><path d="M660,1020L780,1020L780,900Z" fill="#b0dcd6" stroke="#b0dcd6" stroke-width="1.51"/><path d="M660,900L660,1020L780,900Z" fill="#acdbd4" stroke="#acdbd4" stroke-width="1.51"/><path d="M780,420L660,420L780,540Z" fill="#8ecec6" stroke="#8ecec6" stroke-width="1.51"/><path d="M660,420L660,540L780,540Z" fill="#8fcfc6" stroke="#8fcfc6" stroke-width="1.51"/><path d="M780,540L660,540L780,660Z" fill="#96d2c9" stroke="#96d2c9" stroke-width="1.51"/><path d="M660,540L660,660L780,660Z" fill="#97d2ca" stroke="#97d2ca" stroke-width="1.51"/><path d="M660,900L780,900L780,780Z" fill="#a8d9d2" stroke="#a8d9d2" stroke-width="1.51"/><path d="M660,780L660,900L780,780Z" fill="#a4d8d0" stroke="#a4d8d0" stroke-width="1.51"/><path d="M780,660L660,660L780,780Z" fill="#9dd5cd" stroke="#9dd5cd" stroke-width="1.51"/><path d="M660,660L660,780L780,780Z" fill="#9ed5cd" stroke="#9ed5cd" stroke-width="1.51"/><path d="M780,1020L660,1020L780,1140Z" fill="#b5dfd9" stroke="#b5dfd9" stroke-width="1.51"/><path d="M660,1020L660,1140L780,1140Z" fill="#b6dfd9" stroke="#b6dfd9" stroke-width="1.51"/><path d="M660,1260L780,1260L780,1140Z" fill="#bfe3de" stroke="#bfe3de" stroke-width="1.51"/><path d="M660,1140L660,1260L780,1140Z" fill="#bbe1dc" stroke="#bbe1dc" stroke-width="1.51"/><path d="M780,180L660,180L780,300Z" fill="#7dc8be" stroke="#7dc8be" stroke-width="1.51"/><path d="M660,180L660,300L780,300Z" fill="#7ec8be" stroke="#7ec8be" stroke-width="1.51"/><path d="M660,420L780,420L780,300Z" fill="#88ccc3" stroke="#88ccc3" stroke-width="1.51"/><path d="M660,300L660,420L780,300Z" fill="#84cac1" stroke="#84cac1" stroke-width="1.51"/><path d="M660,-180L540,-180L660,-60Z" fill="#5dbcb1" stroke="#5dbcb1" stroke-width="1.51"/><path d="M540,-180L540,-60L660,-60Z" fill="#5dbcb1" stroke="#5dbcb1" stroke-width="1.51"/><path d="M660,-60L540,-60L660,60Z" fill="#66bfb4" stroke="#66bfb4" stroke-width="1.51"/><path d="M540,-60L540,60L660,60Z" fill="#67c0b5" stroke="#67c0b5" stroke-width="1.51"/><path d="M660,60L540,60L660,180Z" fill="#6fc2b8" stroke="#6fc2b8" stroke-width="1.51"/><path d="M540,60L540,180L660,180Z" fill="#70c3b8" stroke="#70c3b8" stroke-width="1.51"/><path d="M660,180L540,180L660,300Z" fill="#78c6bc" stroke="#78c6bc" stroke-width="1.51"/><path d="M540,180L540,300L660,300Z" fill="#79c6bc" stroke="#79c6bc" stroke-width="1.51"/><path d="M660,300L540,300L660,420Z" fill="#80c8bf" stroke="#80c8bf" stroke-width="1.51"/><path d="M540,300L540,420L660,420Z" fill="#81cac0" stroke="#81cac0" stroke-width="1.51"/><path d="M660,420L540,420L660,540Z" fill="#89ccc3" stroke="#89ccc3" stroke-width="1.51"/><path d="M540,420L540,540L660,540Z" fill="#89cdc3" stroke="#89cdc3" stroke-width="1.51"/><path d="M660,540L540,540L660,660Z" fill="#91d0c7" stroke="#91d0c7" stroke-width="1.51"/><path d="M540,540L540,660L660,660Z" fill="#91d0c7" stroke="#91d0c7" stroke-width="1.51"/><path d="M660,660L540,660L660,780Z" fill="#99d3cb" stroke="#99d3cb" stroke-width="1.51"/><path d="M540,660L540,780L660,780Z" fill="#99d3cb" stroke="#99d3cb" stroke-width="1.51"/><path d="M660,780L540,780L660,900Z" fill="#a1d6cf" stroke="#a1d6cf" stroke-width="1.51"/><path d="M540,780L540,900L660,900Z" fill="#a2d7cf" stroke="#a2d7cf" stroke-width="1.51"/><path d="M660,900L540,900L660,1020Z" fill="#a9d9d2" stroke="#a9d9d2" stroke-width="1.51"/><path d="M540,900L540,1020L660,1020Z" fill="#a9dad3" stroke="#a9dad3" stroke-width="1.51"/><path d="M540,1260L660,1260L660,1140Z" fill="#bbe1db" stroke="#bbe1db" stroke-width="1.51"/><path d="M540,1140L540,1260L660,1140Z" fill="#b6dfd9" stroke="#b6dfd9" stroke-width="1.51"/><path d="M660,1020L540,1020L660,1140Z" fill="#b0ddd6" stroke="#b0ddd6" stroke-width="1.51"/><path d="M540,1020L540,1140L660,1140Z" fill="#b1ddd7" stroke="#b1ddd7" stroke-width="1.51"/><path d="M540,-180L420,-180L540,-60Z" fill="#56baae" stroke="#56baae" stroke-width="1.51"/><path d="M420,-180L420,-60L540,-60Z" fill="#57baaf" stroke="#57baaf" stroke-width="1.51"/><path d="M540,-60L420,-60L540,60Z" fill="#5fbdb2" stroke="#5fbdb2" stroke-width="1.51"/><path d="M420,-60L420,60L540,60Z" fill="#61bdb3" stroke="#61bdb3" stroke-width="1.51"/><path d="M540,60L420,60L540,180Z" fill="#69c0b6" stroke="#69c0b6" stroke-width="1.51"/><path d="M420,60L420,180L540,180Z" fill="#6ac0b6" stroke="#6ac0b6" stroke-width="1.51"/><path d="M540,420L420,420L540,540Z" fill="#83cac1" stroke="#83cac1" stroke-width="1.51"/><path d="M420,420L420,540L540,540Z" fill="#84cac1" stroke="#84cac1" stroke-width="1.51"/><path d="M540,540L420,540L540,660Z" fill="#8bcec4" stroke="#8bcec4" stroke-width="1.51"/><path d="M420,540L420,660L540,660Z" fill="#8ccec5" stroke="#8ccec5" stroke-width="1.51"/><path d="M540,660L420,660L540,780Z" fill="#93d1c8" stroke="#93d1c8" stroke-width="1.51"/><path d="M420,660L420,780L540,780Z" fill="#94d1c9" stroke="#94d1c9" stroke-width="1.51"/><path d="M420,1020L540,1020L540,900Z" fill="#a6d8d1" stroke="#a6d8d1" stroke-width="1.51"/><path d="M420,900L420,1020L540,900Z" fill="#a2d6cf" stroke="#a2d6cf" stroke-width="1.51"/><path d="M540,780L420,780L540,900Z" fill="#9bd4cc" stroke="#9bd4cc" stroke-width="1.51"/><path d="M420,780L420,900L540,900Z" fill="#9dd4cd" stroke="#9dd4cd" stroke-width="1.51"/><path d="M420,1260L540,1260L540,1140Z" fill="#b5dfd9" stroke="#b5dfd9" stroke-width="1.51"/><path d="M420,1140L420,1260L540,1140Z" fill="#b1ddd7" stroke="#b1ddd7" stroke-width="1.51"/><path d="M540,1020L420,1020L540,1140Z" fill="#abdbd4" stroke="#abdbd4" stroke-width="1.51"/><path d="M420,1020L420,1140L540,1140Z" fill="#acdbd5" stroke="#acdbd5" stroke-width="1.51"/><path d="M540,180L420,180L540,300Z" fill="#72c4b9" stroke="#72c4b9" stroke-width="1.51"/><path d="M420,180L420,300L540,300Z" fill="#73c3ba" stroke="#73c3ba" stroke-width="1.51"/><path d="M420,420L540,420L540,300Z" fill="#7dc8be" stroke="#7dc8be" stroke-width="1.51"/><path d="M420,300L420,420L540,300Z" fill="#79c6bc" stroke="#79c6bc" stroke-width="1.51"/><path d="M420,-60L300,-60L420,60Z" fill="#59bbaf" stroke="#59bbaf" stroke-width="1.51"/><path d="M300,-60L300,60L420,60Z" fill="#5abbb0" stroke="#5abbb0" stroke-width="1.51"/><path d="M420,60L300,60L420,180Z" fill="#63beb3" stroke="#63beb3" stroke-width="1.51"/><path d="M300,60L300,180L420,180Z" fill="#64beb4" stroke="#64beb4" stroke-width="1.51"/><path d="M420,180L300,180L420,300Z" fill="#6cc2b7" stroke="#6cc2b7" stroke-width="1.51"/><path d="M300,180L300,300L420,300Z" fill="#6dc2b7" stroke="#6dc2b7" stroke-width="1.51"/><path d="M420,300L300,300L420,420Z" fill="#75c5ba" stroke="#75c5ba" stroke-width="1.51"/><path d="M300,300L300,420L420,420Z" fill="#76c5bb" stroke="#76c5bb" stroke-width="1.51"/><path d="M300,-60L420,-60L420,-180Z" fill="#52b9ad" stroke="#52b9ad" stroke-width="1.51"/><path d="M300,-180L300,-60L420,-180Z" fill="#4db7ab" stroke="#4db7ab" stroke-width="1.51"/><path d="M420,660L300,660L420,780Z" fill="#8ecfc6" stroke="#8ecfc6" stroke-width="1.51"/><path d="M300,660L300,780L420,780Z" fill="#8fcfc6" stroke="#8fcfc6" stroke-width="1.51"/><path d="M420,780L300,780L420,900Z" fill="#96d2ca" stroke="#96d2ca" stroke-width="1.51"/><path d="M300,780L300,900L420,900Z" fill="#97d2ca" stroke="#97d2ca" stroke-width="1.51"/><path d="M420,900L300,900L420,1020Z" fill="#9ed5cd" stroke="#9ed5cd" stroke-width="1.51"/><path d="M300,900L300,1020L420,1020Z" fill="#9fd5ce" stroke="#9fd5ce" stroke-width="1.51"/><path d="M300,1260L420,1260L420,1140Z" fill="#b0ddd6" stroke="#b0ddd6" stroke-width="1.51"/><path d="M300,1140L300,1260L420,1140Z" fill="#acdbd4" stroke="#acdbd4" stroke-width="1.51"/><path d="M420,1020L300,1020L420,1140Z" fill="#a6d9d1" stroke="#a6d9d1" stroke-width="1.51"/><path d="M300,1020L300,1140L420,1140Z" fill="#a7d9d2" stroke="#a7d9d2" stroke-width="1.51"/><path d="M420,420L300,420L420,540Z" fill="#7ec8be" stroke="#7ec8be" stroke-width="1.51"/><path d="M300,420L300,540L420,540Z" fill="#7ec8bf" stroke="#7ec8bf" stroke-width="1.51"/><path d="M300,660L420,660L420,540Z" fill="#89cdc3" stroke="#89cdc3" stroke-width="1.51"/><path d="M300,540L300,660L420,540Z" fill="#84cbc1" stroke="#84cbc1" stroke-width="1.51"/><path d="M300,-180L180,-180L300,-60Z" fill="#48b5aa" stroke="#48b5aa" stroke-width="1.51"/><path d="M180,-180L180,-60L300,-60Z" fill="#49b6aa" stroke="#49b6aa" stroke-width="1.51"/><path d="M300,-60L180,-60L300,60Z" fill="#52b8ad" stroke="#52b8ad" stroke-width="1.51"/><path d="M180,-60L180,60L300,60Z" fill="#54b9ae" stroke="#54b9ae" stroke-width="1.51"/><path d="M300,60L180,60L300,180Z" fill="#5dbcb1" stroke="#5dbcb1" stroke-width="1.51"/><path d="M180,60L180,180L300,180Z" fill="#5ebcb1" stroke="#5ebcb1" stroke-width="1.51"/><path d="M300,180L180,180L300,300Z" fill="#66bfb5" stroke="#66bfb5" stroke-width="1.51"/><path d="M180,180L180,300L300,300Z" fill="#67c0b5" stroke="#67c0b5" stroke-width="1.51"/><path d="M300,300L180,300L300,420Z" fill="#6fc2b8" stroke="#6fc2b8" stroke-width="1.51"/><path d="M180,300L180,420L300,420Z" fill="#70c3b9" stroke="#70c3b9" stroke-width="1.51"/><path d="M300,420L180,420L300,540Z" fill="#78c6bc" stroke="#78c6bc" stroke-width="1.51"/><path d="M180,420L180,540L300,540Z" fill="#79c6bc" stroke="#79c6bc" stroke-width="1.51"/><path d="M300,540L180,540L300,660Z" fill="#80c9c0" stroke="#80c9c0" stroke-width="1.51"/><path d="M180,540L180,660L300,660Z" fill="#81cac0" stroke="#81cac0" stroke-width="1.51"/><path d="M300,660L180,660L300,780Z" fill="#88ccc4" stroke="#88ccc4" stroke-width="1.51"/><path d="M180,660L180,780L300,780Z" fill="#89cdc4" stroke="#89cdc4" stroke-width="1.51"/><path d="M180,1020L300,1020L300,900Z" fill="#9cd4cd" stroke="#9cd4cd" stroke-width="1.51"/><path d="M180,900L180,1020L300,900Z" fill="#97d2ca" stroke="#97d2ca" stroke-width="1.51"/><path d="M300,780L180,780L300,900Z" fill="#91d0c8" stroke="#91d0c8" stroke-width="1.51"/><path d="M180,780L180,900L300,900Z" fill="#92d0c8" stroke="#92d0c8" stroke-width="1.51"/><path d="M300,1020L180,1020L300,1140Z" fill="#a1d6cf" stroke="#a1d6cf" stroke-width="1.51"/><path d="M180,1020L180,1140L300,1140Z" fill="#a2d7cf" stroke="#a2d7cf" stroke-width="1.51"/><path d="M300,1140L180,1140L300,1260Z" fill="#a9d9d3" stroke="#a9d9d3" stroke-width="1.51"/><path d="M180,1140L180,1260L300,1260Z" fill="#aadad3" stroke="#aadad3" stroke-width="1.51"/><path d="M180,-180L60,-180L180,-60Z" fill="#40b3a7" stroke="#40b3a7" stroke-width="1.51"/><path d="M60,-180L60,-60L180,-60Z" fill="#41b3a7" stroke="#41b3a7" stroke-width="1.51"/><path d="M180,-60L60,-60L180,60Z" fill="#4cb6ab" stroke="#4cb6ab" stroke-width="1.51"/><path d="M60,-60L60,60L180,60Z" fill="#4db6ab" stroke="#4db6ab" stroke-width="1.51"/><path d="M180,60L60,60L180,180Z" fill="#56baaf" stroke="#56baaf" stroke-width="1.51"/><path d="M60,60L60,180L180,180Z" fill="#57baaf" stroke="#57baaf" stroke-width="1.51"/><path d="M180,180L60,180L180,300Z" fill="#60bdb2" stroke="#60bdb2" stroke-width="1.51"/><path d="M60,180L60,300L180,300Z" fill="#61bdb2" stroke="#61bdb2" stroke-width="1.51"/><path d="M60,1140L180,1140L180,1020Z" fill="#9ed5ce" stroke="#9ed5ce" stroke-width="1.51"/><path d="M60,1020L60,1140L180,1020Z" fill="#9ad3cb" stroke="#9ad3cb" stroke-width="1.51"/><path d="M180,540L60,540L180,660Z" fill="#7bc7bd" stroke="#7bc7bd" stroke-width="1.51"/><path d="M60,540L60,660L180,660Z" fill="#7cc7be" stroke="#7cc7be" stroke-width="1.51"/><path d="M180,660L60,660L180,780Z" fill="#83cac1" stroke="#83cac1" stroke-width="1.51"/><path d="M60,660L60,780L180,780Z" fill="#84cac1" stroke="#84cac1" stroke-width="1.51"/><path d="M60,1020L180,1020L180,900Z" fill="#97d2ca" stroke="#97d2ca" stroke-width="1.51"/><path d="M60,900L60,1020L180,900Z" fill="#92d0c8" stroke="#92d0c8" stroke-width="1.51"/><path d="M180,780L60,780L180,900Z" fill="#8ccec5" stroke="#8ccec5" stroke-width="1.51"/><path d="M60,780L60,900L180,900Z" fill="#8dcec5" stroke="#8dcec5" stroke-width="1.51"/><path d="M180,1140L60,1140L180,1260Z" fill="#a4d7d0" stroke="#a4d7d0" stroke-width="1.51"/><path d="M60,1140L60,1260L180,1260Z" fill="#a4d8d0" stroke="#a4d8d0" stroke-width="1.51"/><path d="M180,300L60,300L180,420Z" fill="#69c0b6" stroke="#69c0b6" stroke-width="1.51"/><path d="M60,300L60,420L180,420Z" fill="#6ac1b6" stroke="#6ac1b6" stroke-width="1.51"/><path d="M60,540L180,540L180,420Z" fill="#75c5bb" stroke="#75c5bb" stroke-width="1.51"/><path d="M60,420L60,540L180,420Z" fill="#70c3b9" stroke="#70c3b9" stroke-width="1.51"/><path d="M60,-180L-60,-180L60,-60Z" fill="#37b1a5" stroke="#37b1a5" stroke-width="1.51"/><path d="M-60,-180L-60,-60L60,-60Z" fill="#39b1a5" stroke="#39b1a5" stroke-width="1.51"/><path d="M60,-60L-60,-60L60,60Z" fill="#44b4a8" stroke="#44b4a8" stroke-width="1.51"/><path d="M-60,-60L-60,60L60,60Z" fill="#45b5a9" stroke="#45b5a9" stroke-width="1.51"/><path d="M60,60L-60,60L60,180Z" fill="#4fb7ac" stroke="#4fb7ac" stroke-width="1.51"/><path d="M-60,60L-60,180L60,180Z" fill="#50b8ad" stroke="#50b8ad" stroke-width="1.51"/><path d="M60,180L-60,180L60,300Z" fill="#5abbb0" stroke="#5abbb0" stroke-width="1.51"/><path d="M-60,180L-60,300L60,300Z" fill="#5bbbb0" stroke="#5bbbb0" stroke-width="1.51"/><path d="M60,300L-60,300L60,420Z" fill="#63beb3" stroke="#63beb3" stroke-width="1.51"/><path d="M-60,300L-60,420L60,420Z" fill="#64bfb4" stroke="#64bfb4" stroke-width="1.51"/><path d="M60,420L-60,420L60,540Z" fill="#6dc1b7" stroke="#6dc1b7" stroke-width="1.51"/><path d="M-60,420L-60,540L60,540Z" fill="#6dc2b8" stroke="#6dc2b8" stroke-width="1.51"/><path d="M60,540L-60,540L60,660Z" fill="#76c5bb" stroke="#76c5bb" stroke-width="1.51"/><path d="M-60,540L-60,660L60,660Z" fill="#76c5bc" stroke="#76c5bc" stroke-width="1.51"/><path d="M60,660L-60,660L60,780Z" fill="#7ec8bf" stroke="#7ec8bf" stroke-width="1.51"/><path d="M-60,660L-60,780L60,780Z" fill="#7fc8bf" stroke="#7fc8bf" stroke-width="1.51"/><path d="M60,780L-60,780L60,900Z" fill="#86cbc3" stroke="#86cbc3" stroke-width="1.51"/><path d="M-60,780L-60,900L60,900Z" fill="#87ccc3" stroke="#87ccc3" stroke-width="1.51"/><path d="M60,900L-60,900L60,1020Z" fill="#8fcec6" stroke="#8fcec6" stroke-width="1.51"/><path d="M-60,900L-60,1020L60,1020Z" fill="#90cfc7" stroke="#90cfc7" stroke-width="1.51"/><path d="M60,1020L-60,1020L60,1140Z" fill="#97d2ca" stroke="#97d2ca" stroke-width="1.51"/><path d="M-60,1020L-60,1140L60,1140Z" fill="#98d2cb" stroke="#98d2cb" stroke-width="1.51"/><path d="M60,1140L-60,1140L60,1260Z" fill="#9fd5ce" stroke="#9fd5ce" stroke-width="1.51"/><path d="M-60,1140L-60,1260L60,1260Z" fill="#a0d6ce" stroke="#a0d6ce" stroke-width="1.51"/><path d="M-60,-180L-180,-180L-60,-60Z" fill="#2eaea2" stroke="#2eaea2" stroke-width="1.51"/><path d="M-180,-180L-180,-60L-60,-60Z" fill="#2fafa3" stroke="#2fafa3" stroke-width="1.51"/><path d="M-60,-60L-180,-60L-60,60Z" fill="#3cb2a6" stroke="#3cb2a6" stroke-width="1.51"/><path d="M-180,-60L-180,60L-60,60Z" fill="#3db3a7" stroke="#3db3a7" stroke-width="1.51"/><path d="M-60,60L-180,60L-60,180Z" fill="#48b5aa" stroke="#48b5aa" stroke-width="1.51"/><path d="M-180,60L-180,180L-60,180Z" fill="#49b6aa" stroke="#49b6aa" stroke-width="1.51"/><path d="M-60,180L-180,180L-60,300Z" fill="#53b9ad" stroke="#53b9ad" stroke-width="1.51"/><path d="M-180,180L-180,300L-60,300Z" fill="#54b9ae" stroke="#54b9ae" stroke-width="1.51"/><path d="M-60,300L-180,300L-60,420Z" fill="#5dbcb1" stroke="#5dbcb1" stroke-width="1.51"/><path d="M-180,300L-180,420L-60,420Z" fill="#5ebdb2" stroke="#5ebdb2" stroke-width="1.51"/><path d="M-60,660L-180,660L-60,780Z" fill="#78c6bc" stroke="#78c6bc" stroke-width="1.51"/><path d="M-180,660L-180,780L-60,780Z" fill="#79c6bd" stroke="#79c6bd" stroke-width="1.51"/><path d="M-60,780L-180,780L-60,900Z" fill="#81c9c0" stroke="#81c9c0" stroke-width="1.51"/><path d="M-180,780L-180,900L-60,900Z" fill="#82cac0" stroke="#82cac0" stroke-width="1.51"/><path d="M-180,1140L-60,1140L-60,1020Z" fill="#94d1c9" stroke="#94d1c9" stroke-width="1.51"/><path d="M-180,1020L-180,1140L-60,1020Z" fill="#90cfc7" stroke="#90cfc7" stroke-width="1.51"/><path d="M-60,900L-180,900L-60,1020Z" fill="#89ccc3" stroke="#89ccc3" stroke-width="1.51"/><path d="M-180,900L-180,1020L-60,1020Z" fill="#8acdc4" stroke="#8acdc4" stroke-width="1.51"/><path d="M-60,1140L-180,1140L-60,1260Z" fill="#99d3cb" stroke="#99d3cb" stroke-width="1.51"/><path d="M-180,1140L-180,1260L-60,1260Z" fill="#9ad4cc" stroke="#9ad4cc" stroke-width="1.51"/><path d="M-60,420L-180,420L-60,540Z" fill="#67bfb5" stroke="#67bfb5" stroke-width="1.51"/><path d="M-180,420L-180,540L-60,540Z" fill="#68c0b5" stroke="#68c0b5" stroke-width="1.51"/><path d="M-180,660L-60,660L-60,540Z" fill="#73c4ba" stroke="#73c4ba" stroke-width="1.51"/><path d="M-180,540L-180,660L-60,540Z" fill="#6ec2b8" stroke="#6ec2b8" stroke-width="1.51"/></svg>