<?xml version="1.0" encoding="utf-8"?>
<!-- Generator: Adobe Illustrator 16.0.0, SVG Export Plug-In . SVG Version: 6.00 Build 0)  -->
<!DOCTYPE svg PUBLIC "-//W3C//DTD SVG 1.1//EN" "http://www.w3.org/Graphics/SVG/1.1/DTD/svg11.dtd">
<svg version="1.1" id="Layer_1" xmlns="http://www.w3.org/2000/svg" xmlns:xlink="http://www.w3.org/1999/xlink" x="0px" y="0px"
	 width="1920px" height="1080px" viewBox="0 0 1920 1080" enable-background="new 0 0 1920 1080" xml:space="preserve">
<path fill="#9FD5CE" stroke="#9FD5CE" stroke-width="1.51" d="M0-1955.5v159.763L159.763-1955.5H0z"/>
<path fill="#A0D6CE" stroke="#A0D6CE" stroke-width="1.51" d="M0-1795.737h159.763V-1955.5L0-1795.737z"/>
<path fill="#A7D8D2" stroke="#A7D8D2" stroke-width="1.51" d="M159.763-1955.5v159.763L319.526-1955.5H159.763z"/>
<path fill="#A8D9D2" stroke="#A8D9D2" stroke-width="1.51" d="M159.763-1795.737h159.763V-1955.5L159.763-1795.737z"/>
<path fill="#AEDCD6" stroke="#AEDCD6" stroke-width="1.51" d="M319.526-1955.5v159.763L479.29-1955.5H319.526z"/>
<path fill="#AFDCD6" stroke="#AFDCD6" stroke-width="1.51" d="M319.526-1795.737H479.29V-1955.5L319.526-1795.737z"/>
<path fill="#B6DFDA" stroke="#B6DFDA" stroke-width="1.51" d="M479.29-1955.5v159.763L639.053-1955.5H479.29z"/>
<path fill="#B7E0DA" stroke="#B7E0DA" stroke-width="1.51" d="M479.29-1795.737h159.763V-1955.5L479.29-1795.737z"/>
<path fill="#BDE2DD" stroke="#BDE2DD" stroke-width="1.51" d="M639.053-1955.5v159.763L798.816-1955.5H639.053z"/>
<path fill="#BFE3DE" stroke="#BFE3DE" stroke-width="1.51" d="M639.053-1795.737h159.763V-1955.5L639.053-1795.737z"/>
<path fill="#C5E6E1" stroke="#C5E6E1" stroke-width="1.51" d="M798.816-1955.5v159.763L958.579-1955.5H798.816z"/>
<path fill="#C6E6E1" stroke="#C6E6E1" stroke-width="1.51" d="M798.816-1795.737h159.763V-1955.5L798.816-1795.737z"/>
<path fill="#CDE9E5" stroke="#CDE9E5" stroke-width="1.51" d="M958.579-1955.5v159.763l159.763-159.763H958.579z"/>
<path fill="#CEEAE5" stroke="#CEEAE5" stroke-width="1.51" d="M958.579-1795.737h159.763V-1955.5L958.579-1795.737z"/>
<path fill="#D4ECE9" stroke="#D4ECE9" stroke-width="1.51" d="M1118.342-1955.5v159.763l159.764-159.763H1118.342z"/>
<path fill="#D5EDE9" stroke="#D5EDE9" stroke-width="1.51" d="M1118.342-1795.737h159.764V-1955.5L1118.342-1795.737z"/>
<path fill="#E6F4F2" stroke="#E6F4F2" stroke-width="1.51" d="M1597.632-1795.737V-1955.5h-159.764L1597.632-1795.737z"/>
<path fill="#E2F2EF" stroke="#E2F2EF" stroke-width="1.51" d="M1437.868-1795.737h159.764L1437.868-1955.5V-1795.737z"/>
<path fill="#DCF0ED" stroke="#DCF0ED" stroke-width="1.51" d="M1278.105-1955.5v159.763l159.763-159.763H1278.105z"/>
<path fill="#DDF0ED" stroke="#DDF0ED" stroke-width="1.51" d="M1278.105-1795.737h159.763V-1955.5L1278.105-1795.737z"/>
<path fill="#EBF6F4" stroke="#EBF6F4" stroke-width="1.51" d="M1597.632-1955.5v159.763l159.763-159.763H1597.632z"/>
<path fill="#ECF7F5" stroke="#ECF7F5" stroke-width="1.51" d="M1597.632-1795.737h159.763V-1955.5L1597.632-1795.737z"/>
<path fill="#F3F9F8" stroke="#F3F9F8" stroke-width="1.51" d="M1757.395-1955.5v159.763l159.764-159.763H1757.395z"/>
<path fill="#F4FAF8" stroke="#F4FAF8" stroke-width="1.51" d="M1757.395-1795.737h159.764V-1955.5L1757.395-1795.737z"/>
<path fill="#9AD3CC" stroke="#9AD3CC" stroke-width="1.51" d="M0-1795.737v159.763l159.763-159.763H0z"/>
<path fill="#9AD4CC" stroke="#9AD4CC" stroke-width="1.51" d="M0-1635.974h159.763v-159.763L0-1635.974z"/>
<path fill="#A1D6CF" stroke="#A1D6CF" stroke-width="1.51" d="M159.763-1795.737v159.763l159.763-159.763H159.763z"/>
<path fill="#A2D7D0" stroke="#A2D7D0" stroke-width="1.51" d="M159.763-1635.974h159.763v-159.763L159.763-1635.974z"/>
<path fill="#A9DAD3" stroke="#A9DAD3" stroke-width="1.51" d="M319.526-1795.737v159.763l159.763-159.763H319.526z"/>
<path fill="#AADAD4" stroke="#AADAD4" stroke-width="1.51" d="M319.526-1635.974H479.29v-159.763L319.526-1635.974z"/>
<path fill="#E1F2EF" stroke="#E1F2EF" stroke-width="1.51" d="M1597.632-1635.974v-159.763h-159.764L1597.632-1635.974z"/>
<path fill="#DDF0ED" stroke="#DDF0ED" stroke-width="1.51" d="M1437.868-1635.974h159.764l-159.764-159.763V-1635.974z"/>
<path fill="#C0E4DF" stroke="#C0E4DF" stroke-width="1.51" d="M798.816-1795.737v159.763l159.763-159.763H798.816z"/>
<path fill="#C1E4DF" stroke="#C1E4DF" stroke-width="1.51" d="M798.816-1635.974h159.763v-159.763L798.816-1635.974z"/>
<path fill="#C8E7E2" stroke="#C8E7E2" stroke-width="1.51" d="M958.579-1795.737v159.763l159.763-159.763H958.579z"/>
<path fill="#C9E8E3" stroke="#C9E8E3" stroke-width="1.51" d="M958.579-1635.974h159.763v-159.763L958.579-1635.974z"/>
<path fill="#DAEFEB" stroke="#DAEFEB" stroke-width="1.51" d="M1437.868-1635.974v-159.763h-159.763L1437.868-1635.974z"/>
<path fill="#D6EDE9" stroke="#D6EDE9" stroke-width="1.51" d="M1278.105-1635.974h159.763l-159.763-159.763V-1635.974z"/>
<path fill="#CFEAE6" stroke="#CFEAE6" stroke-width="1.51" d="M1118.342-1795.737v159.763l159.764-159.763H1118.342z"/>
<path fill="#D0EBE6" stroke="#D0EBE6" stroke-width="1.51" d="M1118.342-1635.974h159.764v-159.763L1118.342-1635.974z"/>
<path fill="#E6F4F2" stroke="#E6F4F2" stroke-width="1.51" d="M1597.632-1795.737v159.763l159.763-159.763H1597.632z"/>
<path fill="#E7F4F2" stroke="#E7F4F2" stroke-width="1.51" d="M1597.632-1635.974h159.763v-159.763L1597.632-1635.974z"/>
<path fill="#F0F8F7" stroke="#F0F8F7" stroke-width="1.51" d="M1917.158-1635.974v-159.763h-159.764L1917.158-1635.974z"/>
<path fill="#ECF7F5" stroke="#ECF7F5" stroke-width="1.51" d="M1757.395-1635.974h159.764l-159.764-159.763V-1635.974z"/>
<path fill="#B1DDD7" stroke="#B1DDD7" stroke-width="1.51" d="M479.29-1795.737v159.763l159.763-159.763H479.29z"/>
<path fill="#B2DED7" stroke="#B2DED7" stroke-width="1.51" d="M479.29-1635.974h159.763v-159.763L479.29-1635.974z"/>
<path fill="#BBE2DC" stroke="#BBE2DC" stroke-width="1.51" d="M798.816-1635.974v-159.763H639.053L798.816-1635.974z"/>
<path fill="#B7E0DA" stroke="#B7E0DA" stroke-width="1.51" d="M639.053-1635.974h159.763l-159.763-159.763V-1635.974z"/>
<path fill="#95D1C9" stroke="#95D1C9" stroke-width="1.51" d="M0-1635.974v159.763l159.763-159.763H0z"/>
<path fill="#95D2C9" stroke="#95D2C9" stroke-width="1.51" d="M0-1476.21h159.763v-159.763L0-1476.21z"/>
<path fill="#9DD4CD" stroke="#9DD4CD" stroke-width="1.51" d="M159.763-1635.974v159.763l159.763-159.763H159.763z"/>
<path fill="#9DD5CD" stroke="#9DD5CD" stroke-width="1.51" d="M159.763-1476.21h159.763v-159.763L159.763-1476.21z"/>
<path fill="#A5D8D1" stroke="#A5D8D1" stroke-width="1.51" d="M319.526-1635.974v159.763l159.763-159.763H319.526z"/>
<path fill="#A5D8D1" stroke="#A5D8D1" stroke-width="1.51" d="M319.526-1476.21H479.29v-159.763L319.526-1476.21z"/>
<path fill="#B7E0DA" stroke="#B7E0DA" stroke-width="1.51" d="M798.816-1476.21v-159.763H639.053L798.816-1476.21z"/>
<path fill="#B2DED7" stroke="#B2DED7" stroke-width="1.51" d="M639.053-1476.21h159.763l-159.763-159.763V-1476.21z"/>
<path fill="#ACDBD5" stroke="#ACDBD5" stroke-width="1.51" d="M479.29-1635.974v159.763l159.763-159.763H479.29z"/>
<path fill="#ADDCD5" stroke="#ADDCD5" stroke-width="1.51" d="M479.29-1476.21h159.763v-159.763L479.29-1476.21z"/>
<path fill="#BCE2DC" stroke="#BCE2DC" stroke-width="1.51" d="M798.816-1635.974v159.763l159.763-159.763H798.816z"/>
<path fill="#BCE2DC" stroke="#BCE2DC" stroke-width="1.51" d="M798.816-1476.21h159.763v-159.763L798.816-1476.21z"/>
<path fill="#C3E5E0" stroke="#C3E5E0" stroke-width="1.51" d="M958.579-1635.974v159.763l159.763-159.763H958.579z"/>
<path fill="#C4E6E0" stroke="#C4E6E0" stroke-width="1.51" d="M958.579-1476.21h159.763v-159.763L958.579-1476.21z"/>
<path fill="#CBE8E4" stroke="#CBE8E4" stroke-width="1.51" d="M1118.342-1635.974v159.763l159.764-159.763H1118.342z"/>
<path fill="#CBE9E4" stroke="#CBE9E4" stroke-width="1.51" d="M1118.342-1476.21h159.764v-159.763L1118.342-1476.21z"/>
<path fill="#D3ECE8" stroke="#D3ECE8" stroke-width="1.51" d="M1278.105-1635.974v159.763l159.763-159.763H1278.105z"/>
<path fill="#D3ECE8" stroke="#D3ECE8" stroke-width="1.51" d="M1278.105-1476.21h159.763v-159.763L1278.105-1476.21z"/>
<path fill="#DAEFEB" stroke="#DAEFEB" stroke-width="1.51" d="M1437.868-1635.974v159.763l159.764-159.763H1437.868z"/>
<path fill="#DBEFEC" stroke="#DBEFEC" stroke-width="1.51" d="M1437.868-1476.21h159.764v-159.763L1437.868-1476.21z"/>
<path fill="#ECF6F4" stroke="#ECF6F4" stroke-width="1.51" d="M1917.158-1476.21v-159.763h-159.764L1917.158-1476.21z"/>
<path fill="#E7F5F2" stroke="#E7F5F2" stroke-width="1.51" d="M1757.395-1476.21h159.764l-159.764-159.763V-1476.21z"/>
<path fill="#E2F2EF" stroke="#E2F2EF" stroke-width="1.51" d="M1597.632-1635.974v159.763l159.763-159.763H1597.632z"/>
<path fill="#E2F3F0" stroke="#E2F3F0" stroke-width="1.51" d="M1597.632-1476.21h159.763v-159.763L1597.632-1476.21z"/>
<path fill="#8FCFC7" stroke="#8FCFC7" stroke-width="1.51" d="M0-1476.21v159.763l159.763-159.763H0z"/>
<path fill="#90CFC7" stroke="#90CFC7" stroke-width="1.51" d="M0-1316.447h159.763v-159.763L0-1316.447z"/>
<path fill="#97D2CA" stroke="#97D2CA" stroke-width="1.51" d="M159.763-1476.21v159.763l159.763-159.763H159.763z"/>
<path fill="#98D3CB" stroke="#98D3CB" stroke-width="1.51" d="M159.763-1316.447h159.763v-159.763L159.763-1316.447z"/>
<path fill="#9FD6CF" stroke="#9FD6CF" stroke-width="1.51" d="M319.526-1476.21v159.763L479.29-1476.21H319.526z"/>
<path fill="#A0D6CF" stroke="#A0D6CF" stroke-width="1.51" d="M319.526-1316.447H479.29v-159.763L319.526-1316.447z"/>
<path fill="#B1DED7" stroke="#B1DED7" stroke-width="1.51" d="M798.816-1316.447v-159.763H639.053L798.816-1316.447z"/>
<path fill="#ADDBD5" stroke="#ADDBD5" stroke-width="1.51" d="M639.053-1316.447h159.763L639.053-1476.21V-1316.447z"/>
<path fill="#A7D9D2" stroke="#A7D9D2" stroke-width="1.51" d="M479.29-1476.21v159.763l159.763-159.763H479.29z"/>
<path fill="#A8D9D2" stroke="#A8D9D2" stroke-width="1.51" d="M479.29-1316.447h159.763v-159.763L479.29-1316.447z"/>
<path fill="#B7E0DA" stroke="#B7E0DA" stroke-width="1.51" d="M798.816-1476.21v159.763l159.763-159.763H798.816z"/>
<path fill="#B7E0DA" stroke="#B7E0DA" stroke-width="1.51" d="M798.816-1316.447h159.763v-159.763L798.816-1316.447z"/>
<path fill="#BEE3DD" stroke="#BEE3DD" stroke-width="1.51" d="M958.579-1476.21v159.763l159.763-159.763H958.579z"/>
<path fill="#BFE3DE" stroke="#BFE3DE" stroke-width="1.51" d="M958.579-1316.447h159.763v-159.763L958.579-1316.447z"/>
<path fill="#C6E6E1" stroke="#C6E6E1" stroke-width="1.51" d="M1118.342-1476.21v159.763l159.764-159.763H1118.342z"/>
<path fill="#C7E6E1" stroke="#C7E6E1" stroke-width="1.51" d="M1118.342-1316.447h159.764v-159.763L1118.342-1316.447z"/>
<path fill="#CEEAE5" stroke="#CEEAE5" stroke-width="1.51" d="M1278.105-1476.21v159.763l159.763-159.763H1278.105z"/>
<path fill="#CFEAE5" stroke="#CFEAE5" stroke-width="1.51" d="M1278.105-1316.447h159.763v-159.763L1278.105-1316.447z"/>
<path fill="#DFF1EE" stroke="#DFF1EE" stroke-width="1.51" d="M1757.395-1316.447v-159.763h-159.763L1757.395-1316.447z"/>
<path fill="#DBEFEC" stroke="#DBEFEC" stroke-width="1.51" d="M1597.632-1316.447h159.763l-159.763-159.763V-1316.447z"/>
<path fill="#D5ECE9" stroke="#D5ECE9" stroke-width="1.51" d="M1437.868-1476.21v159.763l159.764-159.763H1437.868z"/>
<path fill="#D6ECE9" stroke="#D6ECE9" stroke-width="1.51" d="M1437.868-1316.447h159.764v-159.763L1437.868-1316.447z"/>
<path fill="#E4F3F1" stroke="#E4F3F1" stroke-width="1.51" d="M1757.395-1476.21v159.763l159.764-159.763H1757.395z"/>
<path fill="#E5F4F1" stroke="#E5F4F1" stroke-width="1.51" d="M1757.395-1316.447h159.764v-159.763L1757.395-1316.447z"/>
<path fill="#8ACDC4" stroke="#8ACDC4" stroke-width="1.51" d="M0-1316.447v159.763l159.763-159.763H0z"/>
<path fill="#8BCDC4" stroke="#8BCDC4" stroke-width="1.51" d="M0-1156.684h159.763v-159.763L0-1156.684z"/>
<path fill="#92D0C8" stroke="#92D0C8" stroke-width="1.51" d="M159.763-1316.447v159.763l159.763-159.763H159.763z"/>
<path fill="#93D1C9" stroke="#93D1C9" stroke-width="1.51" d="M159.763-1156.684h159.763v-159.763L159.763-1156.684z"/>
<path fill="#9AD3CC" stroke="#9AD3CC" stroke-width="1.51" d="M319.526-1316.447v159.763l159.763-159.763H319.526z"/>
<path fill="#9BD4CC" stroke="#9BD4CC" stroke-width="1.51" d="M319.526-1156.684H479.29v-159.763L319.526-1156.684z"/>
<path fill="#A2D7CF" stroke="#A2D7CF" stroke-width="1.51" d="M479.29-1316.447v159.763l159.763-159.763H479.29z"/>
<path fill="#A3D7D0" stroke="#A3D7D0" stroke-width="1.51" d="M479.29-1156.684h159.763v-159.763L479.29-1156.684z"/>
<path fill="#A9DAD3" stroke="#A9DAD3" stroke-width="1.51" d="M639.053-1316.447v159.763l159.763-159.763H639.053z"/>
<path fill="#ABDBD4" stroke="#ABDBD4" stroke-width="1.51" d="M639.053-1156.684h159.763v-159.763L639.053-1156.684z"/>
<path fill="#B2DDD7" stroke="#B2DDD7" stroke-width="1.51" d="M798.816-1316.447v159.763l159.763-159.763H798.816z"/>
<path fill="#B2DED7" stroke="#B2DED7" stroke-width="1.51" d="M798.816-1156.684h159.763v-159.763L798.816-1156.684z"/>
<path fill="#B9E1DA" stroke="#B9E1DA" stroke-width="1.51" d="M958.579-1316.447v159.763l159.763-159.763H958.579z"/>
<path fill="#BAE1DB" stroke="#BAE1DB" stroke-width="1.51" d="M958.579-1156.684h159.763v-159.763L958.579-1156.684z"/>
<path fill="#C1E4DE" stroke="#C1E4DE" stroke-width="1.51" d="M1118.342-1316.447v159.763l159.764-159.763H1118.342z"/>
<path fill="#C2E4DF" stroke="#C2E4DF" stroke-width="1.51" d="M1118.342-1156.684h159.764v-159.763L1118.342-1156.684z"/>
<path fill="#C9E7E2" stroke="#C9E7E2" stroke-width="1.51" d="M1278.105-1316.447v159.763l159.763-159.763H1278.105z"/>
<path fill="#CAE8E3" stroke="#CAE8E3" stroke-width="1.51" d="M1278.105-1156.684h159.763v-159.763L1278.105-1156.684z"/>
<path fill="#D0EAE6" stroke="#D0EAE6" stroke-width="1.51" d="M1437.868-1316.447v159.763l159.764-159.763H1437.868z"/>
<path fill="#D1EBE7" stroke="#D1EBE7" stroke-width="1.51" d="M1437.868-1156.684h159.764v-159.763L1437.868-1156.684z"/>
<path fill="#D8EEEA" stroke="#D8EEEA" stroke-width="1.51" d="M1597.632-1316.447v159.763l159.763-159.763H1597.632z"/>
<path fill="#D9EEEB" stroke="#D9EEEB" stroke-width="1.51" d="M1597.632-1156.684h159.763v-159.763L1597.632-1156.684z"/>
<path fill="#DFF1EE" stroke="#DFF1EE" stroke-width="1.51" d="M1757.395-1316.447v159.763l159.764-159.763H1757.395z"/>
<path fill="#E0F2EE" stroke="#E0F2EE" stroke-width="1.51" d="M1757.395-1156.684h159.764v-159.763L1757.395-1156.684z"/>
<path fill="#85CBC2" stroke="#85CBC2" stroke-width="1.51" d="M0-1156.684v159.763l159.763-159.763H0z"/>
<path fill="#85CBC2" stroke="#85CBC2" stroke-width="1.51" d="M0-996.921h159.763v-159.763L0-996.921z"/>
<path fill="#8DCEC5" stroke="#8DCEC5" stroke-width="1.51" d="M159.763-1156.684v159.763l159.763-159.763H159.763z"/>
<path fill="#8ECFC6" stroke="#8ECFC6" stroke-width="1.51" d="M159.763-996.921h159.763v-159.763L159.763-996.921z"/>
<path fill="#95D1C9" stroke="#95D1C9" stroke-width="1.51" d="M319.526-1156.684v159.763l159.763-159.763H319.526z"/>
<path fill="#96D2CA" stroke="#96D2CA" stroke-width="1.51" d="M319.526-996.921H479.29v-159.763L319.526-996.921z"/>
<path fill="#9DD5CD" stroke="#9DD5CD" stroke-width="1.51" d="M479.29-1156.684v159.763l159.763-159.763H479.29z"/>
<path fill="#9ED5CD" stroke="#9ED5CD" stroke-width="1.51" d="M479.29-996.921h159.763v-159.763L479.29-996.921z"/>
<path fill="#A4D8D0" stroke="#A4D8D0" stroke-width="1.51" d="M639.053-1156.684v159.763l159.763-159.763H639.053z"/>
<path fill="#A6D9D1" stroke="#A6D9D1" stroke-width="1.51" d="M639.053-996.921h159.763v-159.763L639.053-996.921z"/>
<path fill="#ACDBD4" stroke="#ACDBD4" stroke-width="1.51" d="M798.816-1156.684v159.763l159.763-159.763H798.816z"/>
<path fill="#ADDCD5" stroke="#ADDCD5" stroke-width="1.51" d="M798.816-996.921h159.763v-159.763L798.816-996.921z"/>
<path fill="#B4DFD8" stroke="#B4DFD8" stroke-width="1.51" d="M958.579-1156.684v159.763l159.763-159.763H958.579z"/>
<path fill="#B5DFD9" stroke="#B5DFD9" stroke-width="1.51" d="M958.579-996.921h159.763v-159.763L958.579-996.921z"/>
<path fill="#BCE2DC" stroke="#BCE2DC" stroke-width="1.51" d="M1118.342-1156.684v159.763l159.764-159.763H1118.342z"/>
<path fill="#BDE2DC" stroke="#BDE2DC" stroke-width="1.51" d="M1118.342-996.921h159.764v-159.763L1118.342-996.921z"/>
<path fill="#CEE9E5" stroke="#CEE9E5" stroke-width="1.51" d="M1597.632-996.921v-159.763h-159.764L1597.632-996.921z"/>
<path fill="#CAE8E3" stroke="#CAE8E3" stroke-width="1.51" d="M1437.868-996.921h159.764l-159.764-159.763V-996.921z"/>
<path fill="#C4E5E0" stroke="#C4E5E0" stroke-width="1.51" d="M1278.105-1156.684v159.763l159.763-159.763H1278.105z"/>
<path fill="#C5E6E0" stroke="#C5E6E0" stroke-width="1.51" d="M1278.105-996.921h159.763v-159.763L1278.105-996.921z"/>
<path fill="#D3ECE7" stroke="#D3ECE7" stroke-width="1.51" d="M1597.632-1156.684v159.763l159.763-159.763H1597.632z"/>
<path fill="#D4ECE8" stroke="#D4ECE8" stroke-width="1.51" d="M1597.632-996.921h159.763v-159.763L1597.632-996.921z"/>
<path fill="#DAEFEB" stroke="#DAEFEB" stroke-width="1.51" d="M1757.395-1156.684v159.763l159.764-159.763H1757.395z"/>
<path fill="#DBF0EC" stroke="#DBF0EC" stroke-width="1.51" d="M1757.395-996.921h159.764v-159.763L1757.395-996.921z"/>
<path fill="#7FC9BF" stroke="#7FC9BF" stroke-width="1.51" d="M0-996.921v159.763l159.763-159.763H0z"/>
<path fill="#80C9C0" stroke="#80C9C0" stroke-width="1.51" d="M0-837.158h159.763v-159.763L0-837.158z"/>
<path fill="#87CCC3" stroke="#87CCC3" stroke-width="1.51" d="M159.763-996.921v159.763l159.763-159.763H159.763z"/>
<path fill="#88CDC4" stroke="#88CDC4" stroke-width="1.51" d="M159.763-837.158h159.763v-159.763L159.763-837.158z"/>
<path fill="#90CFC7" stroke="#90CFC7" stroke-width="1.51" d="M319.526-996.921v159.763L479.29-996.921H319.526z"/>
<path fill="#90D0C7" stroke="#90D0C7" stroke-width="1.51" d="M319.526-837.158H479.29v-159.763L319.526-837.158z"/>
<path fill="#97D3CA" stroke="#97D3CA" stroke-width="1.51" d="M479.29-996.921v159.763l159.763-159.763H479.29z"/>
<path fill="#98D3CB" stroke="#98D3CB" stroke-width="1.51" d="M479.29-837.158h159.763v-159.763L479.29-837.158z"/>
<path fill="#D0EBE6" stroke="#D0EBE6" stroke-width="1.51" d="M1757.395-837.158v-159.763h-159.763L1757.395-837.158z"/>
<path fill="#CCE9E4" stroke="#CCE9E4" stroke-width="1.51" d="M1597.632-837.158h159.763l-159.763-159.763V-837.158z"/>
<path fill="#AFDDD5" stroke="#AFDDD5" stroke-width="1.51" d="M958.579-996.921v159.763l159.763-159.763H958.579z"/>
<path fill="#B0DDD6" stroke="#B0DDD6" stroke-width="1.51" d="M958.579-837.158h159.763v-159.763L958.579-837.158z"/>
<path fill="#B7E0D9" stroke="#B7E0D9" stroke-width="1.51" d="M1118.342-996.921v159.763l159.764-159.763H1118.342z"/>
<path fill="#B7E0DA" stroke="#B7E0DA" stroke-width="1.51" d="M1118.342-837.158h159.764v-159.763L1118.342-837.158z"/>
<path fill="#C9E7E2" stroke="#C9E7E2" stroke-width="1.51" d="M1597.632-837.158v-159.763h-159.764L1597.632-837.158z"/>
<path fill="#C5E6E0" stroke="#C5E6E0" stroke-width="1.51" d="M1437.868-837.158h159.764l-159.764-159.763V-837.158z"/>
<path fill="#BFE3DD" stroke="#BFE3DD" stroke-width="1.51" d="M1278.105-996.921v159.763l159.763-159.763H1278.105z"/>
<path fill="#C0E4DE" stroke="#C0E4DE" stroke-width="1.51" d="M1278.105-837.158h159.763v-159.763L1278.105-837.158z"/>
<path fill="#D5EDE9" stroke="#D5EDE9" stroke-width="1.51" d="M1757.395-996.921v159.763l159.764-159.763H1757.395z"/>
<path fill="#D6EEE9" stroke="#D6EEE9" stroke-width="1.51" d="M1757.395-837.158h159.764v-159.763L1757.395-837.158z"/>
<path fill="#9FD6CE" stroke="#9FD6CE" stroke-width="1.51" d="M639.053-996.921v159.763l159.763-159.763H639.053z"/>
<path fill="#A0D7CF" stroke="#A0D7CF" stroke-width="1.51" d="M639.053-837.158h159.763v-159.763L639.053-837.158z"/>
<path fill="#AADAD3" stroke="#AADAD3" stroke-width="1.51" d="M958.579-837.158v-159.763H798.816L958.579-837.158z"/>
<path fill="#A6D9D1" stroke="#A6D9D1" stroke-width="1.51" d="M798.816-837.158h159.763L798.816-996.921V-837.158z"/>
<path fill="#7AC7BD" stroke="#7AC7BD" stroke-width="1.51" d="M0-837.158v159.763l159.763-159.763H0z"/>
<path fill="#7BC7BD" stroke="#7BC7BD" stroke-width="1.51" d="M0-677.395h159.763v-159.763L0-677.395z"/>
<path fill="#82CAC1" stroke="#82CAC1" stroke-width="1.51" d="M159.763-837.158v159.763l159.763-159.763H159.763z"/>
<path fill="#83CAC1" stroke="#83CAC1" stroke-width="1.51" d="M159.763-677.395h159.763v-159.763L159.763-677.395z"/>
<path fill="#8ACDC5" stroke="#8ACDC5" stroke-width="1.51" d="M319.526-837.158v159.763L479.29-837.158H319.526z"/>
<path fill="#8BCDC5" stroke="#8BCDC5" stroke-width="1.51" d="M319.526-677.395H479.29v-159.763L319.526-677.395z"/>
<path fill="#92D1C8" stroke="#92D1C8" stroke-width="1.51" d="M479.29-837.158v159.763l159.763-159.763H479.29z"/>
<path fill="#93D1C8" stroke="#93D1C8" stroke-width="1.51" d="M479.29-677.395h159.763v-159.763L479.29-677.395z"/>
<path fill="#9AD4CC" stroke="#9AD4CC" stroke-width="1.51" d="M639.053-837.158v159.763l159.763-159.763H639.053z"/>
<path fill="#9BD4CC" stroke="#9BD4CC" stroke-width="1.51" d="M639.053-677.395h159.763v-159.763L639.053-677.395z"/>
<path fill="#A2D7D0" stroke="#A2D7D0" stroke-width="1.51" d="M798.816-837.158v159.763l159.763-159.763H798.816z"/>
<path fill="#A3D7D0" stroke="#A3D7D0" stroke-width="1.51" d="M798.816-677.395h159.763v-159.763L798.816-677.395z"/>
<path fill="#AADBD3" stroke="#AADBD3" stroke-width="1.51" d="M958.579-837.158v159.763l159.763-159.763H958.579z"/>
<path fill="#ABDBD4" stroke="#ABDBD4" stroke-width="1.51" d="M958.579-677.395h159.763v-159.763L958.579-677.395z"/>
<path fill="#B1DDD7" stroke="#B1DDD7" stroke-width="1.51" d="M1118.342-837.158v159.763l159.764-159.763H1118.342z"/>
<path fill="#B3DED7" stroke="#B3DED7" stroke-width="1.51" d="M1118.342-677.395h159.764v-159.763L1118.342-677.395z"/>
<path fill="#BAE1DB" stroke="#BAE1DB" stroke-width="1.51" d="M1278.105-837.158v159.763l159.763-159.763H1278.105z"/>
<path fill="#BBE1DB" stroke="#BBE1DB" stroke-width="1.51" d="M1278.105-677.395h159.763v-159.763L1278.105-677.395z"/>
<path fill="#C1E4DF" stroke="#C1E4DF" stroke-width="1.51" d="M1437.868-837.158v159.763l159.764-159.763H1437.868z"/>
<path fill="#C2E4DF" stroke="#C2E4DF" stroke-width="1.51" d="M1437.868-677.395h159.764v-159.763L1437.868-677.395z"/>
<path fill="#C9E8E3" stroke="#C9E8E3" stroke-width="1.51" d="M1597.632-837.158v159.763l159.763-159.763H1597.632z"/>
<path fill="#CAE8E3" stroke="#CAE8E3" stroke-width="1.51" d="M1597.632-677.395h159.763v-159.763L1597.632-677.395z"/>
<path fill="#D0EBE7" stroke="#D0EBE7" stroke-width="1.51" d="M1757.395-837.158v159.763l159.764-159.763H1757.395z"/>
<path fill="#D1EBE7" stroke="#D1EBE7" stroke-width="1.51" d="M1757.395-677.395h159.764v-159.763L1757.395-677.395z"/>
<path fill="#74C4BB" stroke="#74C4BB" stroke-width="1.51" d="M0-677.395v159.763l159.763-159.763H0z"/>
<path fill="#75C5BB" stroke="#75C5BB" stroke-width="1.51" d="M0-517.631h159.763v-159.763L0-517.631z"/>
<path fill="#7CC7BE" stroke="#7CC7BE" stroke-width="1.51" d="M159.763-677.395v159.763l159.763-159.763H159.763z"/>
<path fill="#7EC8BF" stroke="#7EC8BF" stroke-width="1.51" d="M159.763-517.631h159.763v-159.763L159.763-517.631z"/>
<path fill="#85CBC2" stroke="#85CBC2" stroke-width="1.51" d="M319.526-677.395v159.763L479.29-677.395H319.526z"/>
<path fill="#86CBC2" stroke="#86CBC2" stroke-width="1.51" d="M319.526-517.631H479.29v-159.763L319.526-517.631z"/>
<path fill="#8DCEC6" stroke="#8DCEC6" stroke-width="1.51" d="M479.29-677.395v159.763l159.763-159.763H479.29z"/>
<path fill="#8ECFC6" stroke="#8ECFC6" stroke-width="1.51" d="M479.29-517.631h159.763v-159.763L479.29-517.631z"/>
<path fill="#95D1C9" stroke="#95D1C9" stroke-width="1.51" d="M639.053-677.395v159.763l159.763-159.763H639.053z"/>
<path fill="#96D2CA" stroke="#96D2CA" stroke-width="1.51" d="M639.053-517.631h159.763v-159.763L639.053-517.631z"/>
<path fill="#ADDBD5" stroke="#ADDBD5" stroke-width="1.51" d="M1118.342-677.395v159.763l159.764-159.763H1118.342z"/>
<path fill="#AEDCD5" stroke="#AEDCD5" stroke-width="1.51" d="M1118.342-517.631h159.764v-159.763L1118.342-517.631z"/>
<path fill="#B5DFD9" stroke="#B5DFD9" stroke-width="1.51" d="M1278.105-677.395v159.763l159.763-159.763H1278.105z"/>
<path fill="#B6DFD9" stroke="#B6DFD9" stroke-width="1.51" d="M1278.105-517.631h159.763v-159.763L1278.105-517.631z"/>
<path fill="#C6E6E2" stroke="#C6E6E2" stroke-width="1.51" d="M1757.395-517.631v-159.763h-159.763L1757.395-517.631z"/>
<path fill="#C2E5DF" stroke="#C2E5DF" stroke-width="1.51" d="M1597.632-517.631h159.763l-159.763-159.763V-517.631z"/>
<path fill="#BCE2DC" stroke="#BCE2DC" stroke-width="1.51" d="M1437.868-677.395v159.763l159.764-159.763H1437.868z"/>
<path fill="#BDE2DD" stroke="#BDE2DD" stroke-width="1.51" d="M1437.868-517.631h159.764v-159.763L1437.868-517.631z"/>
<path fill="#CBE8E4" stroke="#CBE8E4" stroke-width="1.51" d="M1757.395-677.395v159.763l159.764-159.763H1757.395z"/>
<path fill="#CCE9E4" stroke="#CCE9E4" stroke-width="1.51" d="M1757.395-517.631h159.764v-159.763L1757.395-517.631z"/>
<path fill="#9DD5CD" stroke="#9DD5CD" stroke-width="1.51" d="M798.816-677.395v159.763l159.763-159.763H798.816z"/>
<path fill="#9ED5CD" stroke="#9ED5CD" stroke-width="1.51" d="M798.816-517.631h159.763v-159.763L798.816-517.631z"/>
<path fill="#A8D9D2" stroke="#A8D9D2" stroke-width="1.51" d="M1118.342-517.631v-159.763H958.579L1118.342-517.631z"/>
<path fill="#A4D8D0" stroke="#A4D8D0" stroke-width="1.51" d="M958.579-517.631h159.763L958.579-677.395V-517.631z"/>
<path fill="#77C5BC" stroke="#77C5BC" stroke-width="1.51" d="M159.763-517.631v159.763l159.763-159.763H159.763z"/>
<path fill="#78C6BC" stroke="#78C6BC" stroke-width="1.51" d="M159.763-357.868h159.763v-159.763L159.763-357.868z"/>
<path fill="#80C9C0" stroke="#80C9C0" stroke-width="1.51" d="M319.526-517.631v159.763L479.29-517.631H319.526z"/>
<path fill="#81C9C0" stroke="#81C9C0" stroke-width="1.51" d="M319.526-357.868H479.29v-159.763L319.526-357.868z"/>
<path fill="#88CCC3" stroke="#88CCC3" stroke-width="1.51" d="M479.29-517.631v159.763l159.763-159.763H479.29z"/>
<path fill="#89CDC3" stroke="#89CDC3" stroke-width="1.51" d="M479.29-357.868h159.763v-159.763L479.29-357.868z"/>
<path fill="#90CFC7" stroke="#90CFC7" stroke-width="1.51" d="M639.053-517.631v159.763l159.763-159.763H639.053z"/>
<path fill="#91D0C7" stroke="#91D0C7" stroke-width="1.51" d="M639.053-357.868h159.763v-159.763L639.053-357.868z"/>
<path fill="#98D3CB" stroke="#98D3CB" stroke-width="1.51" d="M798.816-517.631v159.763l159.763-159.763H798.816z"/>
<path fill="#99D3CB" stroke="#99D3CB" stroke-width="1.51" d="M798.816-357.868h159.763v-159.763L798.816-357.868z"/>
<path fill="#A0D6CF" stroke="#A0D6CF" stroke-width="1.51" d="M958.579-517.631v159.763l159.763-159.763H958.579z"/>
<path fill="#A1D7CF" stroke="#A1D7CF" stroke-width="1.51" d="M958.579-357.868h159.763v-159.763L958.579-357.868z"/>
<path fill="#A8D9D2" stroke="#A8D9D2" stroke-width="1.51" d="M1118.342-517.631v159.763l159.764-159.763H1118.342z"/>
<path fill="#A9DAD2" stroke="#A9DAD2" stroke-width="1.51" d="M1118.342-357.868h159.764v-159.763L1118.342-357.868z"/>
<path fill="#B0DDD6" stroke="#B0DDD6" stroke-width="1.51" d="M1278.105-517.631v159.763l159.763-159.763H1278.105z"/>
<path fill="#B1DDD6" stroke="#B1DDD6" stroke-width="1.51" d="M1278.105-357.868h159.763v-159.763L1278.105-357.868z"/>
<path fill="#B7E0DA" stroke="#B7E0DA" stroke-width="1.51" d="M1437.868-517.631v159.763l159.764-159.763H1437.868z"/>
<path fill="#B8E0DA" stroke="#B8E0DA" stroke-width="1.51" d="M1437.868-357.868h159.764v-159.763L1437.868-357.868z"/>
<path fill="#BFE3DE" stroke="#BFE3DE" stroke-width="1.51" d="M1597.632-517.631v159.763l159.763-159.763H1597.632z"/>
<path fill="#C0E4DE" stroke="#C0E4DE" stroke-width="1.51" d="M1597.632-357.868h159.763v-159.763L1597.632-357.868z"/>
<path fill="#C7E6E2" stroke="#C7E6E2" stroke-width="1.51" d="M1757.395-517.631v159.763l159.764-159.763H1757.395z"/>
<path fill="#C8E7E2" stroke="#C8E7E2" stroke-width="1.51" d="M1757.395-357.868h159.764v-159.763L1757.395-357.868z"/>
<path fill="#71C3B9" stroke="#71C3B9" stroke-width="1.51" d="M159.763-357.868v-159.763H0L159.763-357.868z"/>
<path fill="#6DC2B7" stroke="#6DC2B7" stroke-width="1.51" d="M0-357.868h159.763L0-517.631V-357.868z"/>
<path fill="#B2DED7" stroke="#B2DED7" stroke-width="1.51" d="M1437.868-357.868v159.763l159.764-159.763H1437.868z"/>
<path fill="#B3DED8" stroke="#B3DED8" stroke-width="1.51" d="M1437.868-198.105h159.764v-159.763L1437.868-198.105z"/>
<path fill="#69C0B6" stroke="#69C0B6" stroke-width="1.51" d="M0-357.868v159.763l159.763-159.763H0z"/>
<path fill="#69C0B6" stroke="#69C0B6" stroke-width="1.51" d="M0-198.105h159.763v-159.763L0-198.105z"/>
<path fill="#71C3B9" stroke="#71C3B9" stroke-width="1.51" d="M159.763-357.868v159.763l159.763-159.763H159.763z"/>
<path fill="#72C4BA" stroke="#72C4BA" stroke-width="1.51" d="M159.763-198.105h159.763v-159.763L159.763-198.105z"/>
<path fill="#7AC7BD" stroke="#7AC7BD" stroke-width="1.51" d="M319.526-357.868v159.763L479.29-357.868H319.526z"/>
<path fill="#7BC7BD" stroke="#7BC7BD" stroke-width="1.51" d="M319.526-198.105H479.29v-159.763L319.526-198.105z"/>
<path fill="#82CAC1" stroke="#82CAC1" stroke-width="1.51" d="M479.29-357.868v159.763l159.763-159.763H479.29z"/>
<path fill="#83CAC1" stroke="#83CAC1" stroke-width="1.51" d="M479.29-198.105h159.763v-159.763L479.29-198.105z"/>
<path fill="#8BCDC4" stroke="#8BCDC4" stroke-width="1.51" d="M639.053-357.868v159.763l159.763-159.763H639.053z"/>
<path fill="#8CCEC5" stroke="#8CCEC5" stroke-width="1.51" d="M639.053-198.105h159.763v-159.763L639.053-198.105z"/>
<path fill="#93D0C8" stroke="#93D0C8" stroke-width="1.51" d="M798.816-357.868v159.763l159.763-159.763H798.816z"/>
<path fill="#94D1C8" stroke="#94D1C8" stroke-width="1.51" d="M798.816-198.105h159.763v-159.763L798.816-198.105z"/>
<path fill="#9BD4CC" stroke="#9BD4CC" stroke-width="1.51" d="M958.579-357.868v159.763l159.763-159.763H958.579z"/>
<path fill="#9CD4CC" stroke="#9CD4CC" stroke-width="1.51" d="M958.579-198.105h159.763v-159.763L958.579-198.105z"/>
<path fill="#ADDCD5" stroke="#ADDCD5" stroke-width="1.51" d="M1437.868-198.105v-159.763h-159.763L1437.868-198.105z"/>
<path fill="#A9DAD3" stroke="#A9DAD3" stroke-width="1.51" d="M1278.105-198.105h159.763l-159.763-159.763V-198.105z"/>
<path fill="#A3D7D0" stroke="#A3D7D0" stroke-width="1.51" d="M1118.342-357.868v159.763l159.764-159.763H1118.342z"/>
<path fill="#A3D7D0" stroke="#A3D7D0" stroke-width="1.51" d="M1118.342-198.105h159.764v-159.763L1118.342-198.105z"/>
<path fill="#BAE1DB" stroke="#BAE1DB" stroke-width="1.51" d="M1597.632-357.868v159.763l159.763-159.763H1597.632z"/>
<path fill="#BBE1DC" stroke="#BBE1DC" stroke-width="1.51" d="M1597.632-198.105h159.763v-159.763L1597.632-198.105z"/>
<path fill="#C2E4DF" stroke="#C2E4DF" stroke-width="1.51" d="M1757.395-357.868v159.763l159.764-159.763H1757.395z"/>
<path fill="#C2E5DF" stroke="#C2E5DF" stroke-width="1.51" d="M1757.395-198.105h159.764v-159.763L1757.395-198.105z"/>
<path fill="#62BEB3" stroke="#62BEB3" stroke-width="1.51" d="M0-198.105v159.764l159.763-159.764H0z"/>
<path fill="#64BEB3" stroke="#64BEB3" stroke-width="1.51" d="M0-38.342h159.763v-159.764L0-38.342z"/>
<path fill="#6BC1B7" stroke="#6BC1B7" stroke-width="1.51" d="M159.763-198.105v159.764l159.763-159.764H159.763z"/>
<path fill="#6DC2B7" stroke="#6DC2B7" stroke-width="1.51" d="M159.763-38.342h159.763v-159.764L159.763-38.342z"/>
<path fill="#74C4BB" stroke="#74C4BB" stroke-width="1.51" d="M319.526-198.105v159.764L479.29-198.105H319.526z"/>
<path fill="#76C5BB" stroke="#76C5BB" stroke-width="1.51" d="M319.526-38.342H479.29v-159.764L319.526-38.342z"/>
<path fill="#B0DCD6" stroke="#B0DCD6" stroke-width="1.51" d="M1597.632-38.342v-159.764h-159.764L1597.632-38.342z"/>
<path fill="#ACDBD4" stroke="#ACDBD4" stroke-width="1.51" d="M1437.868-38.342h159.764l-159.764-159.764V-38.342z"/>
<path fill="#8ECEC6" stroke="#8ECEC6" stroke-width="1.51" d="M798.816-198.105v159.764l159.763-159.764H798.816z"/>
<path fill="#8FCFC6" stroke="#8FCFC6" stroke-width="1.51" d="M798.816-38.342h159.763v-159.764L798.816-38.342z"/>
<path fill="#96D2C9" stroke="#96D2C9" stroke-width="1.51" d="M958.579-198.105v159.764l159.763-159.764H958.579z"/>
<path fill="#97D2CA" stroke="#97D2CA" stroke-width="1.51" d="M958.579-38.342h159.763v-159.764L958.579-38.342z"/>
<path fill="#A8D9D2" stroke="#A8D9D2" stroke-width="1.51" d="M1437.868-38.342v-159.764h-159.763L1437.868-38.342z"/>
<path fill="#A4D8D0" stroke="#A4D8D0" stroke-width="1.51" d="M1278.105-38.342h159.763l-159.763-159.764V-38.342z"/>
<path fill="#9DD5CD" stroke="#9DD5CD" stroke-width="1.51" d="M1118.342-198.105v159.764l159.764-159.764H1118.342z"/>
<path fill="#9ED5CD" stroke="#9ED5CD" stroke-width="1.51" d="M1118.342-38.342h159.764v-159.764L1118.342-38.342z"/>
<path fill="#B5DFD9" stroke="#B5DFD9" stroke-width="1.51" d="M1597.632-198.105v159.764l159.763-159.764H1597.632z"/>
<path fill="#B6DFD9" stroke="#B6DFD9" stroke-width="1.51" d="M1597.632-38.342h159.763v-159.764L1597.632-38.342z"/>
<path fill="#BFE3DE" stroke="#BFE3DE" stroke-width="1.51" d="M1917.158-38.342v-159.764h-159.764L1917.158-38.342z"/>
<path fill="#BBE1DC" stroke="#BBE1DC" stroke-width="1.51" d="M1757.395-38.342h159.764l-159.764-159.764V-38.342z"/>
<path fill="#7DC8BE" stroke="#7DC8BE" stroke-width="1.51" d="M479.29-198.105v159.764l159.763-159.764H479.29z"/>
<path fill="#7EC8BE" stroke="#7EC8BE" stroke-width="1.51" d="M479.29-38.342h159.763v-159.764L479.29-38.342z"/>
<path fill="#88CCC3" stroke="#88CCC3" stroke-width="1.51" d="M798.816-38.342v-159.764H639.053L798.816-38.342z"/>
<path fill="#84CAC1" stroke="#84CAC1" stroke-width="1.51" d="M639.053-38.342h159.763L639.053-198.105V-38.342z"/>
<path fill="#5DBCB1" stroke="#5DBCB1" stroke-width="1.51" d="M0-38.342v159.763L159.763-38.342H0z"/>
<path fill="#5DBCB1" stroke="#5DBCB1" stroke-width="1.51" d="M0,121.421h159.763V-38.342L0,121.421z"/>
<path fill="#66BFB4" stroke="#66BFB4" stroke-width="1.51" d="M159.763-38.342v159.763L319.526-38.342H159.763z"/>
<path fill="#67C0B5" stroke="#67C0B5" stroke-width="1.51" d="M159.763,121.421h159.763V-38.342L159.763,121.421z"/>
<path fill="#6FC2B8" stroke="#6FC2B8" stroke-width="1.51" d="M319.526-38.342v159.763L479.29-38.342H319.526z"/>
<path fill="#70C3B8" stroke="#70C3B8" stroke-width="1.51" d="M319.526,121.421H479.29V-38.342L319.526,121.421z"/>
<path fill="#78C6BC" stroke="#78C6BC" stroke-width="1.51" d="M479.29-38.342v159.763L639.053-38.342H479.29z"/>
<path fill="#79C6BC" stroke="#79C6BC" stroke-width="1.51" d="M479.29,121.421h159.763V-38.342L479.29,121.421z"/>
<path fill="#80C8BF" stroke="#80C8BF" stroke-width="1.51" d="M639.053-38.342v159.763L798.816-38.342H639.053z"/>
<path fill="#81CAC0" stroke="#81CAC0" stroke-width="1.51" d="M639.053,121.421h159.763V-38.342L639.053,121.421z"/>
<path fill="#89CCC3" stroke="#89CCC3" stroke-width="1.51" d="M798.816-38.342v159.763L958.579-38.342H798.816z"/>
<path fill="#89CDC3" stroke="#89CDC3" stroke-width="1.51" d="M798.816,121.421h159.763V-38.342L798.816,121.421z"/>
<path fill="#91D0C7" stroke="#91D0C7" stroke-width="1.51" d="M958.579-38.342v159.763l159.763-159.763H958.579z"/>
<path fill="#91D0C7" stroke="#91D0C7" stroke-width="1.51" d="M958.579,121.421h159.763V-38.342L958.579,121.421z"/>
<path fill="#99D3CB" stroke="#99D3CB" stroke-width="1.51" d="M1118.342-38.342v159.763l159.764-159.763H1118.342z"/>
<path fill="#99D3CB" stroke="#99D3CB" stroke-width="1.51" d="M1118.342,121.421h159.764V-38.342L1118.342,121.421z"/>
<path fill="#A1D6CF" stroke="#A1D6CF" stroke-width="1.51" d="M1278.105-38.342v159.763l159.763-159.763H1278.105z"/>
<path fill="#A2D7CF" stroke="#A2D7CF" stroke-width="1.51" d="M1278.105,121.421h159.763V-38.342L1278.105,121.421z"/>
<path fill="#A9D9D2" stroke="#A9D9D2" stroke-width="1.51" d="M1437.868-38.342v159.763l159.764-159.763H1437.868z"/>
<path fill="#A9DAD3" stroke="#A9DAD3" stroke-width="1.51" d="M1437.868,121.421h159.764V-38.342L1437.868,121.421z"/>
<path fill="#BBE1DB" stroke="#BBE1DB" stroke-width="1.51" d="M1917.158,121.421V-38.342h-159.764L1917.158,121.421z"/>
<path fill="#B6DFD9" stroke="#B6DFD9" stroke-width="1.51" d="M1757.395,121.421h159.764L1757.395-38.342V121.421z"/>
<path fill="#B0DDD6" stroke="#B0DDD6" stroke-width="1.51" d="M1597.632-38.342v159.763l159.763-159.763H1597.632z"/>
<path fill="#B1DDD7" stroke="#B1DDD7" stroke-width="1.51" d="M1597.632,121.421h159.763V-38.342L1597.632,121.421z"/>
<path fill="#56BAAE" stroke="#56BAAE" stroke-width="1.51" d="M0,121.421v159.764l159.763-159.764H0z"/>
<path fill="#57BAAF" stroke="#57BAAF" stroke-width="1.51" d="M0,281.185h159.763V121.421L0,281.185z"/>
<path fill="#5FBDB2" stroke="#5FBDB2" stroke-width="1.51" d="M159.763,121.421v159.764l159.763-159.764H159.763z"/>
<path fill="#61BDB3" stroke="#61BDB3" stroke-width="1.51" d="M159.763,281.185h159.763V121.421L159.763,281.185z"/>
<path fill="#69C0B6" stroke="#69C0B6" stroke-width="1.51" d="M319.526,121.421v159.764L479.29,121.421H319.526z"/>
<path fill="#6AC0B6" stroke="#6AC0B6" stroke-width="1.51" d="M319.526,281.185H479.29V121.421L319.526,281.185z"/>
<path fill="#83CAC1" stroke="#83CAC1" stroke-width="1.51" d="M798.816,121.421v159.764l159.763-159.764H798.816z"/>
<path fill="#84CAC1" stroke="#84CAC1" stroke-width="1.51" d="M798.816,281.185h159.763V121.421L798.816,281.185z"/>
<path fill="#8BCEC4" stroke="#8BCEC4" stroke-width="1.51" d="M958.579,121.421v159.764l159.763-159.764H958.579z"/>
<path fill="#8CCEC5" stroke="#8CCEC5" stroke-width="1.51" d="M958.579,281.185h159.763V121.421L958.579,281.185z"/>
<path fill="#93D1C8" stroke="#93D1C8" stroke-width="1.51" d="M1118.342,121.421v159.764l159.764-159.764H1118.342z"/>
<path fill="#94D1C9" stroke="#94D1C9" stroke-width="1.51" d="M1118.342,281.185h159.764V121.421L1118.342,281.185z"/>
<path fill="#A6D8D1" stroke="#A6D8D1" stroke-width="1.51" d="M1597.632,281.185V121.421h-159.764L1597.632,281.185z"/>
<path fill="#A2D6CF" stroke="#A2D6CF" stroke-width="1.51" d="M1437.868,281.185h159.764l-159.764-159.764V281.185z"/>
<path fill="#9BD4CC" stroke="#9BD4CC" stroke-width="1.51" d="M1278.105,121.421v159.764l159.763-159.764H1278.105z"/>
<path fill="#9DD4CD" stroke="#9DD4CD" stroke-width="1.51" d="M1278.105,281.185h159.763V121.421L1278.105,281.185z"/>
<path fill="#B5DFD9" stroke="#B5DFD9" stroke-width="1.51" d="M1917.158,281.185V121.421h-159.764L1917.158,281.185z"/>
<path fill="#B1DDD7" stroke="#B1DDD7" stroke-width="1.51" d="M1757.395,281.185h159.764l-159.764-159.764V281.185z"/>
<path fill="#ABDBD4" stroke="#ABDBD4" stroke-width="1.51" d="M1597.632,121.421v159.764l159.763-159.764H1597.632z"/>
<path fill="#ACDBD5" stroke="#ACDBD5" stroke-width="1.51" d="M1597.632,281.185h159.763V121.421L1597.632,281.185z"/>
<path fill="#72C4B9" stroke="#72C4B9" stroke-width="1.51" d="M479.29,121.421v159.764l159.763-159.764H479.29z"/>
<path fill="#73C3BA" stroke="#73C3BA" stroke-width="1.51" d="M479.29,281.185h159.763V121.421L479.29,281.185z"/>
<path fill="#7DC8BE" stroke="#7DC8BE" stroke-width="1.51" d="M798.816,281.185V121.421H639.053L798.816,281.185z"/>
<path fill="#79C6BC" stroke="#79C6BC" stroke-width="1.51" d="M639.053,281.185h159.763L639.053,121.421V281.185z"/>
<path fill="#59BBAF" stroke="#59BBAF" stroke-width="1.51" d="M159.763,281.185v159.763l159.763-159.763H159.763z"/>
<path fill="#5ABBB0" stroke="#5ABBB0" stroke-width="1.51" d="M159.763,440.947h159.763V281.185L159.763,440.947z"/>
<path fill="#63BEB3" stroke="#63BEB3" stroke-width="1.51" d="M319.526,281.185v159.763L479.29,281.185H319.526z"/>
<path fill="#64BEB4" stroke="#64BEB4" stroke-width="1.51" d="M319.526,440.947H479.29V281.185L319.526,440.947z"/>
<path fill="#6CC2B7" stroke="#6CC2B7" stroke-width="1.51" d="M479.29,281.185v159.763l159.763-159.763H479.29z"/>
<path fill="#6DC2B7" stroke="#6DC2B7" stroke-width="1.51" d="M479.29,440.947h159.763V281.185L479.29,440.947z"/>
<path fill="#75C5BA" stroke="#75C5BA" stroke-width="1.51" d="M639.053,281.185v159.763l159.763-159.763H639.053z"/>
<path fill="#76C5BB" stroke="#76C5BB" stroke-width="1.51" d="M639.053,440.947h159.763V281.185L639.053,440.947z"/>
<path fill="#52B9AD" stroke="#52B9AD" stroke-width="1.51" d="M159.763,440.947V281.185H0L159.763,440.947z"/>
<path fill="#4DB7AB" stroke="#4DB7AB" stroke-width="1.51" d="M0,440.947h159.763L0,281.185V440.947z"/>
<path fill="#8ECFC6" stroke="#8ECFC6" stroke-width="1.51" d="M1118.342,281.185v159.763l159.764-159.763H1118.342z"/>
<path fill="#8FCFC6" stroke="#8FCFC6" stroke-width="1.51" d="M1118.342,440.947h159.764V281.185L1118.342,440.947z"/>
<path fill="#96D2CA" stroke="#96D2CA" stroke-width="1.51" d="M1278.105,281.185v159.763l159.763-159.763H1278.105z"/>
<path fill="#97D2CA" stroke="#97D2CA" stroke-width="1.51" d="M1278.105,440.947h159.763V281.185L1278.105,440.947z"/>
<path fill="#9ED5CD" stroke="#9ED5CD" stroke-width="1.51" d="M1437.868,281.185v159.763l159.764-159.763H1437.868z"/>
<path fill="#9FD5CE" stroke="#9FD5CE" stroke-width="1.51" d="M1437.868,440.947h159.764V281.185L1437.868,440.947z"/>
<path fill="#B0DDD6" stroke="#B0DDD6" stroke-width="1.51" d="M1917.158,440.947V281.185h-159.764L1917.158,440.947z"/>
<path fill="#ACDBD4" stroke="#ACDBD4" stroke-width="1.51" d="M1757.395,440.947h159.764l-159.764-159.763V440.947z"/>
<path fill="#A6D9D1" stroke="#A6D9D1" stroke-width="1.51" d="M1597.632,281.185v159.763l159.763-159.763H1597.632z"/>
<path fill="#A7D9D2" stroke="#A7D9D2" stroke-width="1.51" d="M1597.632,440.947h159.763V281.185L1597.632,440.947z"/>
<path fill="#7EC8BE" stroke="#7EC8BE" stroke-width="1.51" d="M798.816,281.185v159.763l159.763-159.763H798.816z"/>
<path fill="#7EC8BF" stroke="#7EC8BF" stroke-width="1.51" d="M798.816,440.947h159.763V281.185L798.816,440.947z"/>
<path fill="#89CDC3" stroke="#89CDC3" stroke-width="1.51" d="M1118.342,440.947V281.185H958.579L1118.342,440.947z"/>
<path fill="#84CBC1" stroke="#84CBC1" stroke-width="1.51" d="M958.579,440.947h159.763L958.579,281.185V440.947z"/>
<path fill="#48B5AA" stroke="#48B5AA" stroke-width="1.51" d="M0,440.947v159.764l159.763-159.764H0z"/>
<path fill="#49B6AA" stroke="#49B6AA" stroke-width="1.51" d="M0,600.711h159.763V440.947L0,600.711z"/>
<path fill="#52B8AD" stroke="#52B8AD" stroke-width="1.51" d="M159.763,440.947v159.764l159.763-159.764H159.763z"/>
<path fill="#54B9AE" stroke="#54B9AE" stroke-width="1.51" d="M159.763,600.711h159.763V440.947L159.763,600.711z"/>
<path fill="#5DBCB1" stroke="#5DBCB1" stroke-width="1.51" d="M319.526,440.947v159.764L479.29,440.947H319.526z"/>
<path fill="#5EBCB1" stroke="#5EBCB1" stroke-width="1.51" d="M319.526,600.711H479.29V440.947L319.526,600.711z"/>
<path fill="#66BFB5" stroke="#66BFB5" stroke-width="1.51" d="M479.29,440.947v159.764l159.763-159.764H479.29z"/>
<path fill="#67C0B5" stroke="#67C0B5" stroke-width="1.51" d="M479.29,600.711h159.763V440.947L479.29,600.711z"/>
<path fill="#6FC2B8" stroke="#6FC2B8" stroke-width="1.51" d="M639.053,440.947v159.764l159.763-159.764H639.053z"/>
<path fill="#70C3B9" stroke="#70C3B9" stroke-width="1.51" d="M639.053,600.711h159.763V440.947L639.053,600.711z"/>
<path fill="#78C6BC" stroke="#78C6BC" stroke-width="1.51" d="M798.816,440.947v159.764l159.763-159.764H798.816z"/>
<path fill="#79C6BC" stroke="#79C6BC" stroke-width="1.51" d="M798.816,600.711h159.763V440.947L798.816,600.711z"/>
<path fill="#80C9C0" stroke="#80C9C0" stroke-width="1.51" d="M958.579,440.947v159.764l159.763-159.764H958.579z"/>
<path fill="#81CAC0" stroke="#81CAC0" stroke-width="1.51" d="M958.579,600.711h159.763V440.947L958.579,600.711z"/>
<path fill="#88CCC4" stroke="#88CCC4" stroke-width="1.51" d="M1118.342,440.947v159.764l159.764-159.764H1118.342z"/>
<path fill="#89CDC4" stroke="#89CDC4" stroke-width="1.51" d="M1118.342,600.711h159.764V440.947L1118.342,600.711z"/>
<path fill="#9CD4CD" stroke="#9CD4CD" stroke-width="1.51" d="M1597.632,600.711V440.947h-159.764L1597.632,600.711z"/>
<path fill="#97D2CA" stroke="#97D2CA" stroke-width="1.51" d="M1437.868,600.711h159.764l-159.764-159.764V600.711z"/>
<path fill="#91D0C8" stroke="#91D0C8" stroke-width="1.51" d="M1278.105,440.947v159.764l159.763-159.764H1278.105z"/>
<path fill="#92D0C8" stroke="#92D0C8" stroke-width="1.51" d="M1278.105,600.711h159.763V440.947L1278.105,600.711z"/>
<path fill="#A1D6CF" stroke="#A1D6CF" stroke-width="1.51" d="M1597.632,440.947v159.764l159.763-159.764H1597.632z"/>
<path fill="#A2D7CF" stroke="#A2D7CF" stroke-width="1.51" d="M1597.632,600.711h159.763V440.947L1597.632,600.711z"/>
<path fill="#A9D9D3" stroke="#A9D9D3" stroke-width="1.51" d="M1757.395,440.947v159.764l159.764-159.764H1757.395z"/>
<path fill="#AADAD3" stroke="#AADAD3" stroke-width="1.51" d="M1757.395,600.711h159.764V440.947L1757.395,600.711z"/>
<path fill="#40B3A7" stroke="#40B3A7" stroke-width="1.51" d="M0,600.711v159.763l159.763-159.763H0z"/>
<path fill="#41B3A7" stroke="#41B3A7" stroke-width="1.51" d="M0,760.474h159.763V600.711L0,760.474z"/>
<path fill="#4CB6AB" stroke="#4CB6AB" stroke-width="1.51" d="M159.763,600.711v159.763l159.763-159.763H159.763z"/>
<path fill="#4DB6AB" stroke="#4DB6AB" stroke-width="1.51" d="M159.763,760.474h159.763V600.711L159.763,760.474z"/>
<path fill="#56BAAF" stroke="#56BAAF" stroke-width="1.51" d="M319.526,600.711v159.763L479.29,600.711H319.526z"/>
<path fill="#57BAAF" stroke="#57BAAF" stroke-width="1.51" d="M319.526,760.474H479.29V600.711L319.526,760.474z"/>
<path fill="#60BDB2" stroke="#60BDB2" stroke-width="1.51" d="M479.29,600.711v159.763l159.763-159.763H479.29z"/>
<path fill="#61BDB2" stroke="#61BDB2" stroke-width="1.51" d="M479.29,760.474h159.763V600.711L479.29,760.474z"/>
<path fill="#9ED5CE" stroke="#9ED5CE" stroke-width="1.51" d="M1757.395,760.474V600.711h-159.763L1757.395,760.474z"/>
<path fill="#9AD3CB" stroke="#9AD3CB" stroke-width="1.51" d="M1597.632,760.474h159.763l-159.763-159.763V760.474z"/>
<path fill="#7BC7BD" stroke="#7BC7BD" stroke-width="1.51" d="M958.579,600.711v159.763l159.763-159.763H958.579z"/>
<path fill="#7CC7BE" stroke="#7CC7BE" stroke-width="1.51" d="M958.579,760.474h159.763V600.711L958.579,760.474z"/>
<path fill="#83CAC1" stroke="#83CAC1" stroke-width="1.51" d="M1118.342,600.711v159.763l159.764-159.763H1118.342z"/>
<path fill="#84CAC1" stroke="#84CAC1" stroke-width="1.51" d="M1118.342,760.474h159.764V600.711L1118.342,760.474z"/>
<path fill="#97D2CA" stroke="#97D2CA" stroke-width="1.51" d="M1597.632,760.474V600.711h-159.764L1597.632,760.474z"/>
<path fill="#92D0C8" stroke="#92D0C8" stroke-width="1.51" d="M1437.868,760.474h159.764l-159.764-159.763V760.474z"/>
<path fill="#8CCEC5" stroke="#8CCEC5" stroke-width="1.51" d="M1278.105,600.711v159.763l159.763-159.763H1278.105z"/>
<path fill="#8DCEC5" stroke="#8DCEC5" stroke-width="1.51" d="M1278.105,760.474h159.763V600.711L1278.105,760.474z"/>
<path fill="#A4D7D0" stroke="#A4D7D0" stroke-width="1.51" d="M1757.395,600.711v159.763l159.764-159.763H1757.395z"/>
<path fill="#A4D8D0" stroke="#A4D8D0" stroke-width="1.51" d="M1757.395,760.474h159.764V600.711L1757.395,760.474z"/>
<path fill="#69C0B6" stroke="#69C0B6" stroke-width="1.51" d="M639.053,600.711v159.763l159.763-159.763H639.053z"/>
<path fill="#6AC1B6" stroke="#6AC1B6" stroke-width="1.51" d="M639.053,760.474h159.763V600.711L639.053,760.474z"/>
<path fill="#75C5BB" stroke="#75C5BB" stroke-width="1.51" d="M958.579,760.474V600.711H798.816L958.579,760.474z"/>
<path fill="#70C3B9" stroke="#70C3B9" stroke-width="1.51" d="M798.816,760.474h159.763L798.816,600.711V760.474z"/>
<path fill="#37B1A5" stroke="#37B1A5" stroke-width="1.51" d="M0,760.474v159.764l159.763-159.764H0z"/>
<path fill="#39B1A5" stroke="#39B1A5" stroke-width="1.51" d="M0,920.237h159.763V760.474L0,920.237z"/>
<path fill="#44B4A8" stroke="#44B4A8" stroke-width="1.51" d="M159.763,760.474v159.764l159.763-159.764H159.763z"/>
<path fill="#45B5A9" stroke="#45B5A9" stroke-width="1.51" d="M159.763,920.237h159.763V760.474L159.763,920.237z"/>
<path fill="#4FB7AC" stroke="#4FB7AC" stroke-width="1.51" d="M319.526,760.474v159.764L479.29,760.474H319.526z"/>
<path fill="#50B8AD" stroke="#50B8AD" stroke-width="1.51" d="M319.526,920.237H479.29V760.474L319.526,920.237z"/>
<path fill="#5ABBB0" stroke="#5ABBB0" stroke-width="1.51" d="M479.29,760.474v159.764l159.763-159.764H479.29z"/>
<path fill="#5BBBB0" stroke="#5BBBB0" stroke-width="1.51" d="M479.29,920.237h159.763V760.474L479.29,920.237z"/>
<path fill="#63BEB3" stroke="#63BEB3" stroke-width="1.51" d="M639.053,760.474v159.764l159.763-159.764H639.053z"/>
<path fill="#64BFB4" stroke="#64BFB4" stroke-width="1.51" d="M639.053,920.237h159.763V760.474L639.053,920.237z"/>
<path fill="#6DC1B7" stroke="#6DC1B7" stroke-width="1.51" d="M798.816,760.474v159.764l159.763-159.764H798.816z"/>
<path fill="#6DC2B8" stroke="#6DC2B8" stroke-width="1.51" d="M798.816,920.237h159.763V760.474L798.816,920.237z"/>
<path fill="#76C5BB" stroke="#76C5BB" stroke-width="1.51" d="M958.579,760.474v159.764l159.763-159.764H958.579z"/>
<path fill="#76C5BC" stroke="#76C5BC" stroke-width="1.51" d="M958.579,920.237h159.763V760.474L958.579,920.237z"/>
<path fill="#7EC8BF" stroke="#7EC8BF" stroke-width="1.51" d="M1118.342,760.474v159.764l159.764-159.764H1118.342z"/>
<path fill="#7FC8BF" stroke="#7FC8BF" stroke-width="1.51" d="M1118.342,920.237h159.764V760.474L1118.342,920.237z"/>
<path fill="#86CBC3" stroke="#86CBC3" stroke-width="1.51" d="M1278.105,760.474v159.764l159.763-159.764H1278.105z"/>
<path fill="#87CCC3" stroke="#87CCC3" stroke-width="1.51" d="M1278.105,920.237h159.763V760.474L1278.105,920.237z"/>
<path fill="#8FCEC6" stroke="#8FCEC6" stroke-width="1.51" d="M1437.868,760.474v159.764l159.764-159.764H1437.868z"/>
<path fill="#90CFC7" stroke="#90CFC7" stroke-width="1.51" d="M1437.868,920.237h159.764V760.474L1437.868,920.237z"/>
<path fill="#97D2CA" stroke="#97D2CA" stroke-width="1.51" d="M1597.632,760.474v159.764l159.763-159.764H1597.632z"/>
<path fill="#98D2CB" stroke="#98D2CB" stroke-width="1.51" d="M1597.632,920.237h159.763V760.474L1597.632,920.237z"/>
<path fill="#9FD5CE" stroke="#9FD5CE" stroke-width="1.51" d="M1757.395,760.474v159.764l159.764-159.764H1757.395z"/>
<path fill="#A0D6CE" stroke="#A0D6CE" stroke-width="1.51" d="M1757.395,920.237h159.764V760.474L1757.395,920.237z"/>
<path fill="#2EAEA2" stroke="#2EAEA2" stroke-width="1.51" d="M0,920.237V1080l159.763-159.763H0z"/>
<path fill="#2FAFA3" stroke="#2FAFA3" stroke-width="1.51" d="M0,1080h159.763V920.237L0,1080z"/>
<path fill="#3CB2A6" stroke="#3CB2A6" stroke-width="1.51" d="M159.763,920.237V1080l159.763-159.763H159.763z"/>
<path fill="#3DB3A7" stroke="#3DB3A7" stroke-width="1.51" d="M159.763,1080h159.763V920.237L159.763,1080z"/>
<path fill="#48B5AA" stroke="#48B5AA" stroke-width="1.51" d="M319.526,920.237V1080L479.29,920.237H319.526z"/>
<path fill="#49B6AA" stroke="#49B6AA" stroke-width="1.51" d="M319.526,1080H479.29V920.237L319.526,1080z"/>
<path fill="#53B9AD" stroke="#53B9AD" stroke-width="1.51" d="M479.29,920.237V1080l159.763-159.763H479.29z"/>
<path fill="#54B9AE" stroke="#54B9AE" stroke-width="1.51" d="M479.29,1080h159.763V920.237L479.29,1080z"/>
<path fill="#5DBCB1" stroke="#5DBCB1" stroke-width="1.51" d="M639.053,920.237V1080l159.763-159.763H639.053z"/>
<path fill="#5EBDB2" stroke="#5EBDB2" stroke-width="1.51" d="M639.053,1080h159.763V920.237L639.053,1080z"/>
<path fill="#78C6BC" stroke="#78C6BC" stroke-width="1.51" d="M1118.342,920.237V1080l159.764-159.763H1118.342z"/>
<path fill="#79C6BD" stroke="#79C6BD" stroke-width="1.51" d="M1118.342,1080h159.764V920.237L1118.342,1080z"/>
<path fill="#81C9C0" stroke="#81C9C0" stroke-width="1.51" d="M1278.105,920.237V1080l159.763-159.763H1278.105z"/>
<path fill="#82CAC0" stroke="#82CAC0" stroke-width="1.51" d="M1278.105,1080h159.763V920.237L1278.105,1080z"/>
<path fill="#94D1C9" stroke="#94D1C9" stroke-width="1.51" d="M1757.395,1080V920.237h-159.763L1757.395,1080z"/>
<path fill="#90CFC7" stroke="#90CFC7" stroke-width="1.51" d="M1597.632,1080h159.763l-159.763-159.763V1080z"/>
<path fill="#89CCC3" stroke="#89CCC3" stroke-width="1.51" d="M1437.868,920.237V1080l159.764-159.763H1437.868z"/>
<path fill="#8ACDC4" stroke="#8ACDC4" stroke-width="1.51" d="M1437.868,1080h159.764V920.237L1437.868,1080z"/>
<path fill="#99D3CB" stroke="#99D3CB" stroke-width="1.51" d="M1757.395,920.237V1080l159.764-159.763H1757.395z"/>
<path fill="#9AD4CC" stroke="#9AD4CC" stroke-width="1.51" d="M1757.395,1080h159.764V920.237L1757.395,1080z"/>
<path fill="#67BFB5" stroke="#67BFB5" stroke-width="1.51" d="M798.816,920.237V1080l159.763-159.763H798.816z"/>
<path fill="#68C0B5" stroke="#68C0B5" stroke-width="1.51" d="M798.816,1080h159.763V920.237L798.816,1080z"/>
<path fill="#73C4BA" stroke="#73C4BA" stroke-width="1.51" d="M1118.342,1080V920.237H958.579L1118.342,1080z"/>
<path fill="#6EC2B8" stroke="#6EC2B8" stroke-width="1.51" d="M958.579,1080h159.763L958.579,920.237V1080z"/>
</svg>
